<svg width="56" height="56" viewBox="0 0 56 56" fill="none" xmlns="http://www.w3.org/2000/svg">
<rect x="4" y="4" width="48" height="48" rx="24" fill="#D1FAE3"/>
<rect x="4" y="4" width="48" height="48" rx="24" stroke="#ECFDF4" stroke-width="8"/>
<path d="M23.4805 34.3505L26.5805 36.7505C26.9805 37.1505 27.8805 37.3505 28.4805 37.3505H32.2805C33.4805 37.3505 34.7805 36.4505 35.0805 35.2505L37.4805 27.9505C37.9805 26.5505 37.0805 25.3505 35.5805 25.3505H31.5805C30.9805 25.3505 30.4805 24.8505 30.5805 24.1505L31.0805 20.9505C31.2805 20.0505 30.6805 19.0505 29.7805 18.7505C28.9805 18.4505 27.9805 18.8505 27.5805 19.4505L23.4805 25.5505" stroke="#40B773" stroke-width="1.5" stroke-miterlimit="10"/>
<path d="M18.3789 34.3504V24.5504C18.3789 23.1504 18.9789 22.6504 20.3789 22.6504H21.3789C22.7789 22.6504 23.3789 23.1504 23.3789 24.5504V34.3504C23.3789 35.7504 22.7789 36.2504 21.3789 36.2504H20.3789C18.9789 36.2504 18.3789 35.7504 18.3789 34.3504Z" stroke="#40B773" stroke-width="1.5" stroke-linecap="round" stroke-linejoin="round"/>
</svg>
