<svg width="32" height="32" viewBox="0 0 32 32" fill="none" xmlns="http://www.w3.org/2000/svg">
<rect width="32" height="32" rx="16" fill="#E3E6E9"/>
<path d="M15.4993 14.7292C16.1092 14.7292 16.7053 14.5483 17.2124 14.2095C17.7194 13.8707 18.1146 13.3892 18.348 12.8258C18.5813 12.2624 18.6424 11.6424 18.5234 11.0443C18.4045 10.4462 18.1108 9.8968 17.6796 9.46559C17.2484 9.03438 16.699 8.74072 16.1009 8.62175C15.5028 8.50278 14.8828 8.56384 14.3194 8.79721C13.756 9.03058 13.2745 9.42577 12.9357 9.93283C12.5969 10.4399 12.416 11.036 12.416 11.6458C12.416 12.4636 12.7409 13.2478 13.3191 13.8261C13.8973 14.4043 14.6816 14.7292 15.4993 14.7292ZM20.1243 22.4375C20.3288 22.4375 20.5249 22.3563 20.6694 22.2117C20.814 22.0672 20.8952 21.8711 20.8952 21.6667C20.8952 20.2356 20.3267 18.8632 19.3148 17.8512C18.3029 16.8393 16.9304 16.2708 15.4993 16.2708C14.0683 16.2708 12.6958 16.8393 11.6839 17.8512C10.672 18.8632 10.1035 20.2356 10.1035 21.6667C10.1035 21.8711 10.1847 22.0672 10.3293 22.2117C10.4738 22.3563 10.6699 22.4375 10.8743 22.4375H20.1243Z" fill="#666481"/>
</svg>
