<svg width="81" height="80" viewBox="0 0 81 80" fill="none" xmlns="http://www.w3.org/2000/svg">
<rect x="0.5" width="80" height="80" rx="40" fill="#FAFAFA"/>
<path d="M44.0374 20.1902L48.1441 28.4035C48.7041 29.5468 50.1974 30.6435 51.4574 30.8535L58.9008 32.0902C63.6608 32.8835 64.7808 36.3368 61.3508 39.7435L55.5641 45.5302C54.5841 46.5102 54.0474 48.4002 54.3508 49.7535L56.0074 56.9168C57.3141 62.5868 54.3041 64.7802 49.2874 61.8168L42.3108 57.6868C41.0508 56.9402 38.9741 56.9402 37.6908 57.6868L30.7141 61.8168C25.7208 64.7802 22.6874 62.5635 23.9941 56.9168L25.6508 49.7535C25.9541 48.4002 25.4174 46.5102 24.4374 45.5302L18.6508 39.7435C15.2441 36.3368 16.3408 32.8835 21.1008 32.0902L28.5441 30.8535C29.7808 30.6435 31.2741 29.5468 31.8341 28.4035L35.9408 20.1902C38.1808 15.7335 41.8208 15.7335 44.0374 20.1902Z" stroke="url(#paint0_linear_5012_71012)" stroke-width="1.5" stroke-linecap="round" stroke-linejoin="round"/>
<defs>
<linearGradient id="paint0_linear_5012_71012" x1="16.6699" y1="58.6861" x2="70.2304" y2="46.1139" gradientUnits="userSpaceOnUse">
<stop offset="0.102194" stop-color="#F76039"/>
<stop offset="1" stop-color="#F76039"/>
</linearGradient>
</defs>
</svg>
