<svg width="151" height="150" viewBox="0 0 151 150" fill="none" xmlns="http://www.w3.org/2000/svg">
<path d="M121.343 66.4804C122.936 66.4804 124.228 65.1889 124.228 63.5957C124.228 62.0025 122.936 60.7109 121.343 60.7109C119.75 60.7109 118.458 62.0025 118.458 63.5957C118.458 65.1889 119.75 66.4804 121.343 66.4804Z" fill="#F9FAFB"/>
<path d="M75.5 127.04C103.819 127.04 126.776 118.034 126.776 106.925C126.776 95.8155 103.819 86.8096 75.5 86.8096C47.1809 86.8096 24.2236 95.8155 24.2236 106.925C24.2236 118.034 47.1809 127.04 75.5 127.04Z" fill="#F9FAFB"/>
<path d="M73.8543 34.4888L71.7237 47.8443H57.8793L73.8543 34.4888Z" fill="#D0D5DD"/>
<path d="M71.7237 48.157H57.8792C57.7473 48.157 57.6306 48.0751 57.5848 47.9515C57.5403 47.8279 57.5778 47.689 57.6778 47.6057L73.6528 34.2487C73.7528 34.1654 73.8945 34.1529 74.007 34.2168C74.1209 34.2807 74.182 34.4084 74.1612 34.5376L72.0306 47.8945C72.0084 48.0459 71.8778 48.157 71.7237 48.157ZM58.7403 47.532H71.457L73.4139 35.264L58.7403 47.532Z" fill="#F9FAFB"/>
<path d="M75.1305 59.596C75.0347 59.596 74.9388 59.5516 74.8777 59.4682L74.0347 58.3182C73.9402 58.1891 73.9583 58.0085 74.0777 57.9002C74.1972 57.7932 74.3791 57.7932 74.4972 57.903C74.5027 57.9085 74.5097 57.9141 74.5152 57.921C74.5208 57.9266 74.5263 57.9335 74.5305 57.9391C74.5444 57.9557 74.5597 57.978 74.575 57.9988L75.3819 59.0988C75.4833 59.2377 75.4541 59.4335 75.3152 59.5349C75.2597 59.5766 75.1958 59.596 75.1305 59.596Z" fill="#F9FAFB"/>
<mask id="mask0_5091_61138" style="mask-type:luminance" maskUnits="userSpaceOnUse" x="73" y="57" width="3" height="3">
<path d="M75.1305 59.596C75.0347 59.596 74.9388 59.5516 74.8777 59.4682L74.0347 58.3182C73.9402 58.1891 73.9583 58.0085 74.0777 57.9002C74.1972 57.7932 74.3791 57.7932 74.4972 57.903C74.5027 57.9085 74.5097 57.9141 74.5152 57.921C74.5208 57.9266 74.5263 57.9335 74.5305 57.9391C74.5444 57.9557 74.5597 57.978 74.575 57.9988L75.3819 59.0988C75.4833 59.2377 75.4541 59.4335 75.3152 59.5349C75.2597 59.5766 75.1958 59.596 75.1305 59.596Z" fill="white"/>
</mask>
<g mask="url(#mask0_5091_61138)">
<path d="M74.9541 58.9654L78.4569 63.7404C78.2485 63.4556 78.0263 63.1793 77.7902 62.9098C75.1999 59.9584 71.4235 58.482 67.4124 58.482C65.6721 58.482 63.8888 58.7598 62.1374 59.3154L58.6346 54.5404C60.386 53.9848 62.1694 53.707 63.9096 53.707C67.9208 53.707 71.6971 55.1834 74.2874 58.1348C74.5235 58.4043 74.7458 58.6806 74.9541 58.9654Z" fill="#667185"/>
<path d="M78.4568 64.0529C78.361 64.0529 78.2652 64.0084 78.2041 63.9251C78.0013 63.6473 77.7818 63.3751 77.5541 63.1154C75.1082 60.3293 71.5068 58.7945 67.411 58.7945C65.6846 58.7945 63.943 59.0695 62.2305 59.6126C62.1027 59.6529 61.9638 59.607 61.8832 59.5001L58.3805 54.7251C58.3207 54.6445 58.3041 54.539 58.336 54.4431C58.3666 54.3473 58.443 54.2723 58.5388 54.2418C60.3124 53.6793 62.118 53.3945 63.9082 53.3945C68.186 53.3945 71.9555 55.0043 74.5207 57.9279C74.761 58.2015 74.9902 58.489 75.2055 58.7806L78.7055 63.5529C78.7068 63.5543 78.7068 63.5556 78.7082 63.5556C78.8096 63.6945 78.7805 63.8904 78.6416 63.9931C78.586 64.0334 78.5221 64.0529 78.4568 64.0529ZM67.4124 58.1695C70.6193 58.1695 73.5402 59.0751 75.8832 60.7598L74.7027 59.1501C74.4999 58.8723 74.2805 58.6001 74.0527 58.3404C71.6068 55.5543 68.0055 54.0195 63.9096 54.0195C62.3235 54.0195 60.7235 54.2515 59.1471 54.7112L62.2568 58.9515C63.961 58.432 65.6943 58.1695 67.4124 58.1695Z" fill="#F9FAFB"/>
</g>
<path d="M56.6042 81.024C56.5181 81.024 56.4333 80.9892 56.3708 80.9198L56.3222 80.8642C56.1611 80.6795 56.0069 80.4879 55.8639 80.2934L52.3611 75.5184C52.2597 75.3795 52.2889 75.1837 52.4278 75.0823C52.5667 74.9809 52.7625 75.0101 52.8653 75.149L52.8681 75.1531C53 75.3323 53.1417 75.5087 53.2903 75.6781L53.3347 75.7281C53.3417 75.7365 53.3486 75.7434 53.3542 75.7517L56.8569 80.5267C56.9556 80.6615 56.9319 80.849 56.8014 80.9545C56.7431 81.0017 56.6722 81.024 56.6042 81.024Z" fill="#F9FAFB"/>
<mask id="mask1_5091_61138" style="mask-type:luminance" maskUnits="userSpaceOnUse" x="52" y="75" width="5" height="7">
<path d="M56.6042 81.024C56.5181 81.024 56.4333 80.9892 56.3708 80.9198L56.3222 80.8642C56.1611 80.6795 56.0069 80.4879 55.8639 80.2934L52.3611 75.5184C52.2597 75.3795 52.2889 75.1837 52.4278 75.0823C52.5667 74.9809 52.7625 75.0101 52.8653 75.149L52.8681 75.1531C53 75.3323 53.1417 75.5087 53.2903 75.6781L53.3347 75.7281C53.3417 75.7365 53.3486 75.7434 53.3542 75.7517L56.8569 80.5267C56.9556 80.6615 56.9319 80.849 56.8014 80.9545C56.7431 81.0017 56.6722 81.024 56.6042 81.024Z" fill="white"/>
</mask>
<g mask="url(#mask1_5091_61138)">
<g opacity="0.6">
<path d="M53.3555 76.2085L56.8583 80.9835C56.7555 80.8779 56.6541 80.7696 56.5569 80.6585C56.3999 80.4807 56.2527 80.296 56.1152 80.1085L52.6124 75.3335C52.7499 75.521 52.8972 75.7057 53.0541 75.8835C53.1513 75.9946 53.2527 76.1029 53.3555 76.2085Z" fill="#667185"/>
<path d="M56.8583 81.2962C56.7763 81.2962 56.6958 81.2643 56.6347 81.2018C56.5263 81.092 56.4208 80.9781 56.3208 80.8642C56.1596 80.6809 56.0055 80.4892 55.8624 80.2934L52.3597 75.5184C52.2583 75.3795 52.2874 75.1837 52.4263 75.0823C52.5652 74.9809 52.761 75.0101 52.8638 75.149L52.8666 75.1531C52.9985 75.3323 53.1402 75.5087 53.2888 75.6781C53.3819 75.7837 53.4791 75.8892 53.5791 75.9906C53.5902 76.0017 53.5985 76.0129 53.6083 76.024L57.111 80.799C57.2083 80.9309 57.186 81.1156 57.061 81.2226C57.0027 81.2726 56.9305 81.2962 56.8583 81.2962Z" fill="#F9FAFB"/>
</g>
</g>
<path d="M56.8583 81.2959C56.7764 81.2959 56.6958 81.2639 56.6347 81.2014C56.5444 81.1098 56.4555 81.0153 56.3694 80.9181C56.3667 80.9139 56.3625 80.9111 56.3597 80.907C56.3236 80.8625 56.2819 80.8042 56.243 80.75L56.2 80.6903L52.8472 76.1195C52.7486 75.9848 52.7722 75.7972 52.9028 75.6917C53.0319 75.5861 53.2208 75.6014 53.3319 75.7264C53.4125 75.8153 53.4944 75.9028 53.5778 75.9889C53.5875 76 53.5972 76.0111 53.6069 76.0223L57.1097 80.7973C57.2069 80.9292 57.1847 81.1139 57.0597 81.2209C57.0014 81.2722 56.9305 81.2959 56.8583 81.2959Z" fill="#F9FAFB"/>
<mask id="mask2_5091_61138" style="mask-type:luminance" maskUnits="userSpaceOnUse" x="52" y="75" width="6" height="7">
<path d="M56.8583 81.2959C56.7764 81.2959 56.6958 81.2639 56.6347 81.2014C56.5444 81.1098 56.4555 81.0153 56.3694 80.9181C56.3667 80.9139 56.3625 80.9111 56.3597 80.907C56.3236 80.8625 56.2819 80.8042 56.243 80.75L56.2 80.6903L52.8472 76.1195C52.7486 75.9848 52.7722 75.7972 52.9028 75.6917C53.0319 75.5861 53.2208 75.6014 53.3319 75.7264C53.4125 75.8153 53.4944 75.9028 53.5778 75.9889C53.5875 76 53.5972 76.0111 53.6069 76.0223L57.1097 80.7973C57.2069 80.9292 57.1847 81.1139 57.0597 81.2209C57.0014 81.2722 56.9305 81.2959 56.8583 81.2959Z" fill="white"/>
</mask>
<g mask="url(#mask2_5091_61138)">
<g opacity="0.6">
<path d="M53.3556 76.208L56.8584 80.983C56.7556 80.8775 56.6542 80.7691 56.557 80.658C56.4 80.4802 56.2528 80.2955 56.1153 80.108L52.6125 75.333C52.75 75.5205 52.8973 75.7052 53.0542 75.883C53.1514 75.9941 53.2528 76.1025 53.3556 76.208Z" fill="#667185"/>
<path d="M56.8584 81.2957C56.7764 81.2957 56.6959 81.2638 56.6348 81.2013C56.5264 81.0915 56.4209 80.9776 56.3209 80.8638C56.1598 80.6804 56.0056 80.4888 55.8625 80.2929L52.3598 75.5179C52.2584 75.379 52.2875 75.1832 52.4264 75.0818C52.5653 74.9804 52.7612 75.0096 52.8639 75.1485L52.8667 75.1526C52.9987 75.3318 53.1403 75.5082 53.2889 75.6776C53.382 75.7832 53.4792 75.8888 53.5792 75.9901C53.5903 76.0013 53.5987 76.0124 53.6084 76.0235L57.1112 80.7985C57.2084 80.9304 57.1862 81.1151 57.0612 81.2221C57.0028 81.2721 56.9306 81.2957 56.8584 81.2957Z" fill="#F9FAFB"/>
</g>
</g>
<path d="M71.5306 70.342C71.4472 70.6058 71.3514 70.8711 71.2458 71.1322C71.0195 71.6934 70.7445 72.2447 70.4208 72.7795C70.2653 73.0364 70.1 73.2906 69.9208 73.5406C69.3153 74.3947 68.5792 75.1975 67.7181 75.9156C65.375 77.8753 62.5583 78.8531 59.8972 78.8531C57.2375 78.8531 54.7333 77.8739 53.0167 75.9156C49.5792 71.9989 50.5917 65.6517 55.2764 61.7378C57.6195 59.7781 60.4361 58.8003 63.0972 58.8003C65.757 58.8003 68.2611 59.7795 69.9778 61.7378C70.0278 61.7947 70.075 61.8503 70.1195 61.9072C70.3431 62.1767 70.5486 62.4586 70.732 62.7461C71.0639 63.2683 71.3264 63.817 71.5292 64.392C71.6334 64.6836 71.7195 64.9822 71.7875 65.285C72.1639 66.9045 72.0681 68.6489 71.5306 70.342Z" fill="#E4E7EC"/>
<path d="M71.7889 65.2847H62.6278C61.6612 65.2847 60.9959 64.5305 61.1459 63.5972C61.2945 62.6638 62.1987 61.9097 63.1667 61.9097H70.1223C70.3459 62.1791 70.5514 62.4611 70.7348 62.7486C71.0667 63.2708 71.3292 63.8194 71.532 64.3944C71.6348 64.6833 71.7209 64.9819 71.7889 65.2847Z" fill="#98A2B3"/>
<path d="M71.5306 70.3417C71.4472 70.6056 71.3514 70.8709 71.2458 71.132C71.0195 71.6931 70.7445 72.2445 70.4208 72.7792C70.2653 73.0362 70.1 73.2903 69.9208 73.5403H61.2153C60.2972 73.5403 59.6722 72.8237 59.8125 71.9403C59.9542 71.057 60.8097 70.3403 61.725 70.3403H71.5306V70.3417Z" fill="#98A2B3"/>
<path d="M74.132 34.2573H112.778L112.188 37.9601L102.032 101.635H53.1403H49.3014L52.3722 82.3768C54.3944 83.424 56.7028 83.9476 59.0931 83.9476C62.3056 83.9476 65.6681 83.0018 68.6944 81.1087H95.7917C96.2625 81.1087 96.7 80.7421 96.7736 80.2879C96.8458 79.8365 96.5236 79.4698 96.0542 79.4698H70.9403C73.2347 77.5365 74.9361 75.2143 76.0083 72.7615H97.1236C97.5945 72.7615 98.032 72.3948 98.1042 71.9434C98.1764 71.4907 97.8542 71.1226 97.3847 71.1226H76.6278C77.3403 68.8879 77.5375 66.592 77.1986 64.4143H98.4542C98.925 64.4143 99.3625 64.0476 99.4347 63.5962C99.507 63.1434 99.1847 62.7754 98.7153 62.7754H76.8333C76.3389 61.0907 75.4958 59.5129 74.2889 58.1337C71.6986 55.1823 67.9222 53.7059 63.9111 53.7059C61.5222 53.7059 59.0514 54.2295 56.6958 55.2754L57.8806 47.8434H71.725L73.8556 34.4893L74.132 34.2573ZM94.4611 89.4546C94.932 89.4546 95.3695 89.0879 95.4431 88.6337C95.5153 88.1823 95.1931 87.8157 94.7236 87.8157H61.7583C61.2903 87.8157 60.8514 88.1823 60.7792 88.6337C60.707 89.0865 61.0292 89.4546 61.4972 89.4546H94.4611ZM99.7861 56.0684C100.257 56.0684 100.694 55.7018 100.767 55.2504C100.839 54.7976 100.517 54.4296 100.047 54.4296H77.7014C77.2319 54.4296 76.7944 54.7962 76.7222 55.2504C76.65 55.7018 76.9694 56.0684 77.4403 56.0684H99.7861Z" fill="#F7F9FC"/>
<path d="M102.032 101.946H49.3013C49.2097 101.946 49.1236 101.906 49.0638 101.836C49.0041 101.767 48.9791 101.675 48.993 101.585L52.0652 82.3265C52.0805 82.2279 52.143 82.1418 52.2333 82.0974C52.3222 82.0515 52.4291 82.0529 52.518 82.0988C54.4597 83.1043 56.7333 83.6349 59.0944 83.6349C62.3486 83.6349 65.6111 82.6696 68.5291 80.8432C68.5791 80.8127 68.6361 80.796 68.6944 80.796H95.7916C96.1083 80.796 96.4166 80.5404 96.4638 80.239C96.4833 80.1168 96.4555 80.0029 96.3847 79.9196C96.3097 79.8307 96.1916 79.7821 96.0527 79.7821H70.9402C70.8083 79.7821 70.6916 79.7002 70.6472 79.5765C70.6027 79.4529 70.6388 79.3154 70.7388 79.2307C72.9138 77.3974 74.6374 75.1168 75.7222 72.6363C75.7722 72.5224 75.8847 72.4488 76.0083 72.4488H97.1236C97.4402 72.4488 97.7486 72.1946 97.7958 71.8932C97.8152 71.7696 97.7875 71.6557 97.7166 71.5724C97.6416 71.4835 97.5236 71.4349 97.3847 71.4349H76.6277C76.5277 71.4349 76.4347 71.3876 76.3749 71.3071C76.3166 71.2265 76.2999 71.1224 76.3291 71.0279C77.0249 68.846 77.218 66.5752 76.8888 64.4627C76.8749 64.3724 76.9013 64.2807 76.9597 64.2113C77.018 64.1418 77.1055 64.1015 77.1972 64.1015H98.4527C98.7694 64.1015 99.0777 63.8474 99.1249 63.546C99.1444 63.4224 99.1166 63.3085 99.0458 63.2252C98.9708 63.1363 98.8527 63.0877 98.7138 63.0877H76.8333C76.6944 63.0877 76.5722 62.996 76.5333 62.8627C76.0388 61.1752 75.2041 59.6529 74.0527 58.339C71.6069 55.5529 68.0055 54.0182 63.9097 54.0182C61.543 54.0182 59.0916 54.5515 56.8208 55.5613C56.7166 55.6071 56.5944 55.5932 56.5027 55.5238C56.4111 55.4543 56.3666 55.3404 56.3847 55.2265L57.5694 47.7946C57.593 47.6432 57.7249 47.5307 57.8777 47.5307H71.4555L73.543 34.439C73.5541 34.3654 73.593 34.2974 73.6499 34.2488L73.9277 34.014C73.9847 33.9668 74.0555 33.9404 74.1291 33.9404H112.778C112.869 33.9404 112.956 33.9807 113.015 34.0502C113.075 34.1196 113.1 34.2113 113.086 34.3015L102.34 101.679C102.317 101.835 102.186 101.946 102.032 101.946ZM49.6666 101.321H101.765L112.411 34.5682H74.2458L74.1444 34.6543L72.0333 47.8946C72.0097 48.046 71.8777 48.1585 71.725 48.1585H58.1472L57.093 54.7682C59.2944 53.8682 61.6388 53.3946 63.9111 53.3946C68.1888 53.3946 71.9583 55.0043 74.5236 57.9279C75.6833 59.2529 76.5375 60.7765 77.0652 62.4627H98.7166C99.0361 62.4627 99.3305 62.5932 99.5236 62.8196C99.7152 63.0446 99.7944 63.3377 99.7444 63.6446C99.6472 64.2515 99.0805 64.7265 98.4541 64.7265H77.5583C77.8111 66.6974 77.6361 68.7849 77.0486 70.8099H97.3847C97.7041 70.8099 97.9986 70.9404 98.1916 71.1668C98.3833 71.3918 98.4624 71.6849 98.4124 71.9918C98.3152 72.5988 97.7486 73.0738 97.1222 73.0738H76.2111C75.193 75.3265 73.668 77.4113 71.768 79.1571H96.0527C96.3722 79.1571 96.6666 79.2877 96.8597 79.514C97.0513 79.739 97.1291 80.0307 97.0805 80.3377C96.9833 80.9446 96.4166 81.421 95.7902 81.421H68.7833C65.7847 83.2793 62.4361 84.2599 59.093 84.2599C56.7861 84.2599 54.5569 83.7724 52.6138 82.8446L49.6666 101.321ZM94.4611 89.7668H61.4972C61.1791 89.7668 60.8847 89.6377 60.6916 89.4099C60.4999 89.1849 60.4208 88.8918 60.4708 88.5835C60.568 87.9765 61.1333 87.5015 61.7583 87.5015H94.7222C95.0416 87.5015 95.3361 87.6321 95.5291 87.8585C95.7208 88.0835 95.7986 88.3752 95.7499 88.6821C95.6541 89.2904 95.0875 89.7668 94.4611 89.7668ZM61.7583 88.1279C61.443 88.1279 61.1361 88.3821 61.0874 88.6835C61.068 88.8071 61.0958 88.9224 61.1666 89.0057C61.2416 89.0946 61.3597 89.1432 61.4958 89.1432H94.4597C94.7763 89.1432 95.0847 88.8877 95.1319 88.5863C95.1513 88.464 95.1236 88.3502 95.0527 88.2668C94.9777 88.1779 94.8597 88.1293 94.7208 88.1293H61.7583V88.1279ZM99.7861 56.3807H77.4402C77.1208 56.3807 76.8277 56.2515 76.6347 56.0252C76.443 55.8002 76.3652 55.5085 76.4138 55.2015C76.5111 54.5932 77.0763 54.1182 77.7013 54.1182H100.047C100.367 54.1182 100.661 54.2488 100.854 54.4752C101.046 54.7002 101.125 54.9932 101.075 55.3002C100.979 55.9057 100.412 56.3807 99.7861 56.3807ZM77.7013 54.7418C77.3861 54.7418 77.0791 54.9974 77.0305 55.2988C77.0111 55.4224 77.0388 55.5363 77.1097 55.6182C77.1847 55.7057 77.3013 55.7543 77.4402 55.7543H99.7861C100.103 55.7543 100.411 55.5002 100.458 55.1988C100.478 55.0752 100.45 54.9613 100.379 54.8779C100.304 54.789 100.186 54.7404 100.047 54.7404H77.7013V54.7418Z" fill="#F9FAFB"/>
<g opacity="0.5">
<g opacity="0.6">
<path d="M55.7098 61.4473L55.3778 63.532C55.3264 63.5709 55.275 63.6098 55.225 63.6528C54.0959 64.5945 53.8528 66.125 54.6806 67.0681C54.7167 67.1098 54.7556 67.15 54.7959 67.1875L53.357 76.207C53.2542 76.1014 53.1528 75.9931 53.0556 75.882C51.3473 73.9334 50.7445 71.3792 51.1528 68.8264C51.5598 66.2723 52.9764 63.7195 55.307 61.7723C55.4375 61.6612 55.5737 61.5528 55.7098 61.4473Z" fill="#D0D5DD"/>
</g>
</g>
<path d="M97.3848 71.1221C97.8556 71.1221 98.1765 71.4887 98.1043 71.9429C98.032 72.3943 97.5932 72.761 97.1237 72.761H76.0084C76.2459 72.2207 76.4529 71.6735 76.6265 71.1221H97.3848Z" fill="#D0D5DD"/>
<path d="M97.1237 73.0735H76.0084C75.9028 73.0735 75.8042 73.0208 75.7473 72.9319C75.6903 72.843 75.6806 72.7319 75.7223 72.636C75.957 72.0999 76.1612 71.5596 76.3292 71.0291C76.3695 70.8985 76.4903 70.811 76.6278 70.811H97.3848C97.7042 70.811 97.9987 70.9416 98.1917 71.168C98.3834 71.393 98.4626 71.686 98.4126 71.993C98.3167 72.5985 97.7501 73.0735 97.1237 73.0735ZM76.4806 72.4485H97.1237C97.4403 72.4485 97.7487 72.1944 97.7959 71.893C97.8153 71.7694 97.7876 71.6555 97.7167 71.5721C97.6417 71.4833 97.5237 71.4346 97.3848 71.4346H76.8542C76.7431 71.7708 76.6181 72.1096 76.4806 72.4485Z" fill="#D0D5DD"/>
<path d="M96.0541 79.4683C96.5249 79.4683 96.8458 79.8349 96.7735 80.2863C96.7013 80.7391 96.2624 81.1071 95.7916 81.1071H68.693C69.4444 80.6377 70.1749 80.1085 70.8763 79.5224C70.8972 79.5044 70.9194 79.4863 70.9402 79.4697H96.0541V79.4683Z" fill="#D0D5DD"/>
<path d="M95.7916 81.4197H68.693C68.5542 81.4197 68.4305 81.3281 68.393 81.1933C68.3542 81.06 68.4097 80.9156 68.5278 80.8419C69.2736 80.3753 69.9958 79.8503 70.6764 79.2822L70.7347 79.2336C70.7917 79.1864 70.8667 79.1572 70.9403 79.1572H96.0542C96.3736 79.1572 96.668 79.2878 96.8611 79.5142C97.0528 79.7392 97.1305 80.0308 97.0819 80.3378C96.9847 80.9433 96.4194 81.4197 95.7916 81.4197ZM69.7292 80.7947H95.7916C96.1083 80.7947 96.4167 80.5392 96.4639 80.2378C96.4833 80.1156 96.4555 80.0017 96.3847 79.9183C96.3097 79.8294 96.1917 79.7808 96.0528 79.7808H71.0528C70.6278 80.1364 70.1847 80.4753 69.7292 80.7947Z" fill="#D0D5DD"/>
<path d="M115.932 38.5573L115.438 41.6629L115.342 42.2615L105.282 105.335H52.0167L49.3014 101.634H102.032L112.188 37.9615L112.779 34.2573L115.932 38.5573Z" fill="#E4E7EC"/>
<path d="M105.282 105.647H52.018C51.918 105.647 51.825 105.6 51.7667 105.52L49.05 101.818C48.9805 101.724 48.9694 101.597 49.0236 101.492C49.0764 101.386 49.1847 101.321 49.3028 101.321H101.767L111.881 37.9113L112.472 34.2071C112.492 34.0821 112.585 33.9821 112.707 33.953C112.831 33.9238 112.958 33.9696 113.032 34.0724L116.185 38.3724C116.235 38.4391 116.254 38.5238 116.242 38.6058L115.651 42.3099L105.59 105.385C105.565 105.536 105.435 105.647 105.282 105.647ZM52.175 105.022H105.014L115.033 42.2113L115.603 38.6363L112.969 35.0446L112.496 38.0099L102.34 101.682C102.317 101.834 102.185 101.946 102.032 101.946H49.918L52.175 105.022Z" fill="#F9FAFB"/>
<path d="M108.531 109.039L112.033 113.814H59.3L55.7972 109.039H108.531Z" fill="#D0D5DD"/>
<path d="M112.033 114.127H59.3C59.2 114.127 59.107 114.079 59.0486 113.999L55.5458 109.224C55.4764 109.129 55.4653 109.003 55.5195 108.897C55.5722 108.792 55.6806 108.727 55.7986 108.727H108.532C108.632 108.727 108.725 108.774 108.783 108.854L112.286 113.629C112.356 113.724 112.367 113.85 112.313 113.956C112.258 114.06 112.151 114.127 112.033 114.127ZM59.4583 113.502H111.417L108.372 109.352H56.4139L59.4583 113.502Z" fill="#F9FAFB"/>
<path d="M119.276 41.6626L108.531 109.039H55.7972L56.3875 105.335H105.282L115.436 41.6626H119.276Z" fill="#F7F9FC"/>
<path d="M108.531 109.351H55.7972C55.7055 109.351 55.6194 109.311 55.5597 109.242C55.5 109.172 55.475 109.081 55.4889 108.99L56.0791 105.288C56.1027 105.136 56.2347 105.024 56.3875 105.024H105.015L115.128 41.614C115.151 41.4626 115.283 41.3501 115.436 41.3501H119.276C119.368 41.3501 119.454 41.3904 119.514 41.4598C119.574 41.5293 119.599 41.6209 119.585 41.7112L108.839 109.088C108.815 109.239 108.685 109.351 108.531 109.351ZM56.1639 108.726H108.264L118.91 41.9751H115.703L105.59 105.385C105.567 105.536 105.435 105.649 105.282 105.649H56.6541L56.1639 108.726Z" fill="#F9FAFB"/>
<path d="M119.276 41.6626L122.779 46.4376L112.033 113.814L108.531 109.039L119.276 41.6626Z" fill="#E4E7EC"/>
<path d="M112.033 114.126C111.935 114.126 111.842 114.08 111.782 113.999L108.279 109.224C108.229 109.157 108.21 109.072 108.222 108.989L118.968 41.6124C118.987 41.4874 119.081 41.3874 119.203 41.3583C119.326 41.3291 119.454 41.3749 119.528 41.4777L123.031 46.2527C123.081 46.3194 123.1 46.4041 123.087 46.4874L112.342 113.864C112.322 113.989 112.229 114.089 112.107 114.118C112.082 114.124 112.057 114.126 112.033 114.126ZM108.86 108.958L111.842 113.025L122.449 46.5166L119.467 42.4499L108.86 108.958Z" fill="#F9FAFB"/>
<path d="M50.4875 81.1807L32.2903 96.3932C32.2472 96.4293 32.2028 96.4612 32.1584 96.4946C32.1375 96.5098 32.1181 96.5251 32.0972 96.5404C32.0611 96.5654 32.0236 96.5876 31.9875 96.6112C31.9611 96.6279 31.9347 96.6459 31.9084 96.6612C31.8889 96.6723 31.8681 96.6821 31.8486 96.6932C31.8 96.7196 31.75 96.7459 31.7 96.7682C31.682 96.7765 31.6639 96.7834 31.6459 96.7904C31.5792 96.8196 31.5125 96.8446 31.4459 96.8668C31.4153 96.8779 31.3834 96.8876 31.3514 96.8973C31.3264 96.9043 31.3 96.9126 31.275 96.9182C31.2347 96.9279 31.1945 96.9376 31.1542 96.9459C31.1292 96.9515 31.1042 96.9557 31.0806 96.9598C31.0361 96.9668 30.9931 96.9723 30.9486 96.9779C30.9278 96.9807 30.907 96.9834 30.8861 96.9848C30.8222 96.9904 30.757 96.9932 30.6931 96.9932C30.1486 96.9932 29.6375 96.7932 29.2861 96.3932L28.6375 95.6543C28.6056 95.6182 28.5764 95.5807 28.5472 95.5418L32.05 100.317C32.0778 100.356 32.1084 100.393 32.1403 100.429L32.7889 101.168C33.1403 101.568 33.6514 101.768 34.1959 101.768C34.2597 101.768 34.3236 101.765 34.3889 101.76C34.4097 101.758 34.4306 101.754 34.4514 101.753C34.4959 101.747 34.5389 101.742 34.5834 101.735C34.6084 101.731 34.6334 101.725 34.657 101.721C34.6972 101.713 34.7375 101.704 34.7778 101.693C34.8042 101.686 34.8292 101.679 34.8542 101.672C34.8722 101.667 34.8917 101.663 34.9097 101.657C34.9222 101.653 34.9347 101.647 34.9486 101.642C35.0167 101.62 35.0834 101.593 35.1486 101.565C35.1611 101.56 35.175 101.556 35.1889 101.55C35.1945 101.547 35.1986 101.545 35.2042 101.543C35.2542 101.52 35.3028 101.495 35.3528 101.468C35.3709 101.458 35.3889 101.451 35.407 101.44C35.4097 101.439 35.4111 101.438 35.4125 101.436C35.4389 101.421 35.4653 101.403 35.4917 101.386C35.525 101.365 35.5597 101.346 35.5931 101.322C35.5959 101.321 35.5986 101.318 35.6014 101.315C35.6222 101.301 35.6417 101.285 35.6625 101.27C35.6959 101.245 35.7306 101.221 35.7625 101.195C35.7736 101.186 35.7834 101.178 35.7945 101.168L53.9917 85.9557L50.4875 81.1807Z" fill="#667185"/>
<path d="M34.1945 102.081C33.5361 102.081 32.9528 101.829 32.5528 101.374L31.9042 100.635C31.8667 100.592 31.8306 100.547 31.7972 100.502L28.2959 95.7293C28.2959 95.7279 28.2945 95.7279 28.2945 95.7265C28.1931 95.5876 28.2222 95.3918 28.3611 95.2904C28.5 95.189 28.6959 95.2182 28.7972 95.3571L28.7986 95.3599C28.8209 95.3904 28.8445 95.4196 28.8695 95.4487L29.5181 96.1876C29.7972 96.5057 30.2139 96.6807 30.6903 96.6807C30.7459 96.6807 30.8 96.6779 30.8556 96.6724L30.9111 96.6654C30.9486 96.6612 30.9861 96.6571 31.025 96.6501C31.0403 96.6474 31.057 96.6446 31.0722 96.6404L31.0903 96.6362C31.125 96.6293 31.1611 96.621 31.1959 96.6126C31.2181 96.6071 31.2417 96.6001 31.2639 96.5946C31.2917 96.5862 31.3181 96.5779 31.3459 96.5682C31.4042 96.5487 31.4625 96.5265 31.5209 96.5015L31.5681 96.4821C31.6125 96.4612 31.6556 96.439 31.6986 96.4154L31.7514 96.3876C31.7625 96.3807 31.775 96.3737 31.7861 96.3654L31.8445 96.3279C31.8695 96.3126 31.8931 96.2974 31.9181 96.2807C31.9264 96.2751 31.9347 96.2682 31.9431 96.2612L31.9834 96.2307C32.0181 96.2043 32.0542 96.1793 32.0875 96.1501L50.2847 80.9376C50.3514 80.8821 50.4361 80.8571 50.5222 80.8668C50.6084 80.8765 50.6847 80.9224 50.7361 80.9918L54.2389 85.7668C54.3361 85.9001 54.3139 86.0862 54.1875 86.1918L35.957 101.438C35.9278 101.461 35.8986 101.483 35.8681 101.504L35.8278 101.533C35.8111 101.546 35.7945 101.558 35.7778 101.571C35.7403 101.597 35.7111 101.615 35.682 101.633L35.6306 101.665C35.6111 101.678 35.5917 101.69 35.5722 101.702C35.5667 101.706 35.5611 101.708 35.5556 101.711C35.5431 101.718 35.5264 101.727 35.5111 101.733L35.4986 101.739C35.4431 101.768 35.3889 101.797 35.332 101.824C35.3334 101.824 35.3236 101.828 35.3153 101.832C35.3014 101.838 35.2861 101.845 35.2709 101.85C35.1959 101.882 35.1209 101.911 35.0459 101.936C35.0334 101.942 35.0167 101.947 35.0014 101.953C34.9875 101.957 34.9709 101.961 34.9556 101.965L34.9403 101.97C34.9111 101.978 34.882 101.986 34.8528 101.993C34.807 102.004 34.7625 102.015 34.7167 102.024L34.7014 102.027C34.6778 102.031 34.6556 102.036 34.632 102.04C34.582 102.049 34.532 102.056 34.4834 102.061L34.4653 102.064C34.4472 102.067 34.4306 102.068 34.4125 102.07C34.3347 102.078 34.2639 102.081 34.1945 102.081ZM30.1917 97.2557L32.3028 100.133C32.325 100.164 32.35 100.195 32.375 100.224L33.0236 100.963C33.3347 101.318 33.8236 101.495 34.3611 101.449L34.4153 101.442C34.4528 101.438 34.4917 101.433 34.5292 101.427C34.5445 101.424 34.5611 101.421 34.5764 101.417L34.5931 101.414C34.6292 101.407 34.6639 101.399 34.6986 101.39C34.7209 101.385 34.7431 101.378 34.7667 101.372L34.8139 101.36C34.8222 101.356 34.8361 101.35 34.8486 101.346C34.907 101.327 34.9667 101.304 35.025 101.278C35.0361 101.272 35.0486 101.268 35.0611 101.264L35.0709 101.26C35.1167 101.239 35.1597 101.215 35.2042 101.192C35.2153 101.185 35.2278 101.179 35.2389 101.174L35.2486 101.168C35.2514 101.165 35.2556 101.164 35.2584 101.163C35.2681 101.157 35.2806 101.149 35.2931 101.142L35.3584 101.102C35.3778 101.09 35.3972 101.078 35.4153 101.065C35.432 101.053 35.4403 101.047 35.4486 101.04L35.5014 101C35.5222 100.985 35.5431 100.97 35.5639 100.953L35.5917 100.931L53.5653 85.9057L50.4334 81.6349L32.4903 96.6335C32.4459 96.6696 32.4014 96.7043 32.3556 96.7376L32.325 96.7612C32.3084 96.7737 32.2931 96.7862 32.2764 96.7974C32.2431 96.8196 32.2097 96.8404 32.1764 96.8612L32.1278 96.8918C32.107 96.9057 32.0861 96.9182 32.0653 96.9307C32.0486 96.9404 32.032 96.9487 32.0153 96.9571L31.9972 96.9668C31.9431 96.996 31.8875 97.0251 31.832 97.0515C31.8167 97.0585 31.8014 97.0654 31.7847 97.071L31.7695 97.0779C31.6959 97.1099 31.6209 97.139 31.5445 97.164C31.5097 97.1765 31.4736 97.1876 31.4389 97.1974C31.4097 97.2057 31.3806 97.214 31.3514 97.221C31.307 97.2321 31.2611 97.2432 31.2153 97.2515L31.2 97.2543C31.1778 97.2585 31.1542 97.264 31.132 97.2668C31.082 97.2751 31.0334 97.2821 30.9834 97.2876L30.9639 97.2904C30.9472 97.2932 30.9292 97.2946 30.9111 97.296C30.8334 97.3029 30.7611 97.3057 30.6917 97.3057C30.5195 97.3057 30.3514 97.289 30.1917 97.2557Z" fill="#F9FAFB"/>
<path d="M77.1986 64.414C77.1125 63.8598 76.9902 63.3112 76.8319 62.7751C76.3389 61.089 75.4944 59.5126 74.2875 58.1334C71.6972 55.182 67.9208 53.707 63.9097 53.707C61.5194 53.707 59.0486 54.2293 56.6944 55.2779C55.0916 55.9904 53.5444 56.9431 52.1138 58.139C45.7958 63.4195 43.9111 71.6418 47.2986 77.5445L29.0986 92.7598C28.143 93.557 27.9375 94.8529 28.6375 95.6543L29.2861 96.3932C29.6361 96.7932 30.15 96.9945 30.6916 96.9945C31.2361 96.9945 31.8125 96.7932 32.2888 96.3932L50.4875 81.182C51.0819 81.6334 51.7125 82.0334 52.3722 82.3751C54.3944 83.4209 56.7027 83.9459 59.093 83.9459C62.3069 83.9459 65.6694 83.0015 68.693 81.107C69.4458 80.6376 70.175 80.1084 70.9416 79.4681C73.2347 77.5334 74.9375 75.2126 76.0097 72.7584C76.2444 72.2209 76.4527 71.6709 76.6263 71.1195C77.3388 68.889 77.5375 66.5904 77.1986 64.414ZM67.718 75.9168C65.375 77.8765 62.5583 78.8543 59.8972 78.8543C57.2375 78.8543 54.7333 77.8751 53.0166 75.9168C49.5791 72.0001 50.5916 65.6529 55.2764 61.739C57.6194 59.7793 60.4361 58.8015 63.0972 58.8015C65.7569 58.8015 68.2611 59.7806 69.9777 61.739C70.0277 61.7959 70.075 61.8515 70.1194 61.9084C70.343 62.1779 70.5486 62.4598 70.7319 62.7473C71.0639 63.2695 71.3263 63.8181 71.5291 64.3931C71.6333 64.6848 71.7194 64.9834 71.7875 65.2862C72.1625 66.907 72.068 68.6515 71.5291 70.3431C71.4458 70.607 71.35 70.8723 71.2444 71.1334C71.018 71.6945 70.743 72.2459 70.4194 72.7806C70.2639 73.0376 70.0986 73.2918 69.9194 73.5418C69.3166 74.3959 68.5791 75.1987 67.718 75.9168Z" fill="#98A2B3"/>
<path d="M30.6917 97.307C30.0333 97.307 29.45 97.0556 29.0514 96.5987L28.4028 95.8598C28.0444 95.4487 27.8722 94.9084 27.9167 94.339C27.9708 93.6584 28.3278 92.9945 28.8986 92.5195L46.9 77.4709C45.3153 74.5681 44.9111 71.0515 45.7639 67.5348C46.6458 63.9001 48.8306 60.4779 51.9153 57.8987C53.3375 56.7098 54.9042 55.732 56.5694 54.9918C58.9167 53.9473 61.4556 53.3945 63.9125 53.3945C68.1903 53.3945 71.9597 55.0043 74.525 57.9279C75.7389 59.314 76.6167 60.9154 77.1347 62.6876C77.2944 63.2306 77.4208 63.7945 77.5097 64.3654C77.8542 66.5723 77.6514 68.9418 76.9264 71.2154C76.7528 71.7668 76.5417 72.3279 76.2986 72.8834C75.1764 75.4515 73.3931 77.8098 71.1444 79.707C70.3833 80.3431 69.6361 80.8876 68.8597 81.3709C65.8458 83.2584 62.4694 84.257 59.0944 84.257C56.6347 84.257 54.2611 83.7015 52.2306 82.6515C51.6333 82.3431 51.0528 81.982 50.5 81.5793L32.4889 96.6334C31.9708 97.0668 31.3333 97.307 30.6917 97.307ZM63.9111 54.0195C61.5417 54.0195 59.0903 54.5529 56.8222 55.5626C55.2097 56.2793 53.6931 57.2265 52.3153 58.3779C46.1847 63.5015 44.1889 71.4973 47.5708 77.3876C47.6458 77.5195 47.6167 77.6862 47.5 77.7834L29.2986 92.9987C28.8569 93.3681 28.5792 93.8737 28.5389 94.3876C28.5069 94.789 28.625 95.1654 28.8722 95.4473L29.5208 96.1862C29.8 96.5056 30.2153 96.6806 30.6917 96.6806C31.1861 96.6806 31.6833 96.4931 32.0889 96.1529L50.2875 80.9418C50.4 80.8487 50.5611 80.8445 50.6778 80.9334C51.2597 81.3765 51.8778 81.7681 52.5167 82.0973C54.4583 83.1015 56.7333 83.6334 59.0944 83.6334C62.3514 83.6334 65.6139 82.6681 68.5278 80.8431C69.2792 80.3737 70.0042 79.8459 70.7417 79.2293C72.9167 77.3959 74.6389 75.1154 75.7236 72.6348C75.9583 72.0987 76.1611 71.5584 76.3292 71.0279C77.025 68.8445 77.2194 66.5751 76.8903 64.4626C76.8056 63.9195 76.6861 63.382 76.5333 62.8654C76.0417 61.1806 75.2069 59.6584 74.0528 58.3404C71.6083 55.5543 68.0056 54.0195 63.9111 54.0195ZM59.8972 79.1668C57.0292 79.1668 54.5014 78.0862 52.7806 76.1223C51.2444 74.3723 50.5042 72.0556 50.6944 69.5973C50.9278 66.582 52.525 63.6293 55.075 61.4987C57.3972 59.557 60.2458 58.4876 63.0972 58.4876C65.9653 58.4876 68.4931 59.5681 70.2139 61.532C70.2667 61.5918 70.3167 61.6515 70.3653 61.7126C70.5903 61.9834 70.8042 62.2765 70.9972 62.5779C71.3319 63.1029 71.6111 63.6779 71.8264 64.2862C71.9333 64.5862 72.0236 64.8987 72.0944 65.2154C72.4792 66.8751 72.3875 68.6806 71.8292 70.4362C71.7417 70.7112 71.6431 70.9848 71.5361 71.2501C71.3042 71.8265 71.0194 72.3945 70.6889 72.9418C70.5208 73.2181 70.3542 73.4737 70.1764 73.7237C69.5431 74.6168 68.7833 75.4348 67.9194 76.157C65.5972 78.0973 62.7486 79.1668 59.8972 79.1668ZM63.0972 59.1126C60.3931 59.1126 57.6861 60.1306 55.4764 61.9779C53.0542 64.0015 51.5375 66.7973 51.3181 69.6459C51.1403 71.9348 51.8278 74.0876 53.2514 75.7098C54.8514 77.5362 57.2125 78.5418 59.8972 78.5418C62.6014 78.5418 65.3083 77.5237 67.5181 75.6765C68.3417 74.989 69.0639 74.2098 69.6667 73.3612C69.8347 73.1237 69.9944 72.882 70.1542 72.6181C70.4667 72.1001 70.7361 71.5612 70.9569 71.0154C71.0583 70.7654 71.1514 70.507 71.2333 70.2473C71.7569 68.5987 71.8444 66.907 71.4847 65.3543C71.4194 65.0612 71.3361 64.7723 71.2375 64.4959C71.0375 63.9306 70.7792 63.3987 70.4708 62.914C70.2931 62.6348 70.0944 62.3626 69.8819 62.107C69.8361 62.0501 69.7917 61.9973 69.7458 61.9445C68.1431 60.1181 65.7819 59.1126 63.0972 59.1126Z" fill="#F9FAFB"/>
<path d="M60.2777 66.7555C60.25 66.6763 60.2152 66.6013 60.168 66.5305C60.1388 66.4819 60.1041 66.4361 60.0652 66.3916C59.8305 66.125 59.4888 65.9902 59.125 65.9902C59.0958 65.9902 59.0666 65.9916 59.0361 65.993C58.6986 66.0125 58.35 66.1458 58.0555 66.3916C57.6833 66.7027 57.4805 67.1263 57.4694 67.5319C57.4611 67.8236 57.5513 68.1055 57.7472 68.3291C57.9819 68.5958 58.3236 68.7305 58.6875 68.7305C59.0513 68.7305 59.4361 68.5972 59.7555 68.3291C59.9069 68.2013 60.0319 68.0569 60.1263 67.9C60.1708 67.8277 60.2069 67.7527 60.2388 67.675C60.3638 67.3694 60.3791 67.043 60.2777 66.7555Z" fill="#F7F9FC"/>
<path d="M59.1403 64.293C59.0917 64.1541 59.0264 64.0222 58.9473 63.8972C58.8931 63.8125 58.8348 63.7319 58.7667 63.6541C58.3528 63.1819 57.7487 62.9458 57.1084 62.9458C56.5237 62.9458 55.9098 63.1416 55.3778 63.5333C55.3264 63.5722 55.2751 63.6111 55.2251 63.6527C54.0959 64.5944 53.8528 66.125 54.6806 67.068C54.7181 67.1097 54.7556 67.15 54.7959 67.1875C55.2014 67.5791 55.7542 67.7736 56.3389 67.7736C56.7139 67.7736 57.1028 67.693 57.4737 67.5319C57.7362 67.418 57.9889 67.2625 58.2237 67.068C58.4903 66.843 58.7098 66.5875 58.8751 66.3125C58.9376 66.2083 58.9931 66.1014 59.0389 65.993C59.0501 65.9666 59.0612 65.9416 59.0709 65.9152C59.2903 65.375 59.3167 64.8 59.1403 64.293Z" fill="#F7F9FC"/>
<path d="M105.282 105.335H52.0167L49.3014 101.633H102.032L105.282 105.335Z" fill="#D0D5DD"/>
<path d="M105.282 105.647H52.018C51.918 105.647 51.825 105.6 51.7667 105.519L49.05 101.818C48.9805 101.724 48.9694 101.597 49.0236 101.492C49.0764 101.386 49.1847 101.321 49.3028 101.321H102.033C102.124 101.321 102.208 101.36 102.268 101.428L105.518 105.129C105.599 105.221 105.618 105.353 105.568 105.464C105.515 105.576 105.404 105.647 105.282 105.647ZM52.175 105.022H104.59L101.889 101.946H49.9167L52.175 105.022Z" fill="#F9FAFB"/>
<path d="M98.7153 62.7754C99.1862 62.7754 99.507 63.1421 99.4348 63.5962C99.3625 64.0476 98.9237 64.4143 98.4542 64.4143H77.1987C77.1125 63.8601 76.9903 63.3101 76.8334 62.7754H98.7153Z" fill="#D0D5DD"/>
<path d="M98.4542 64.7268H77.1986C77.0445 64.7268 76.9139 64.6143 76.8903 64.4615C76.807 63.9212 76.6875 63.3837 76.5334 62.8629C76.5056 62.7684 76.5237 62.6657 76.5834 62.5879C76.6417 62.5087 76.7348 62.4629 76.8334 62.4629H98.7167C99.0361 62.4629 99.3306 62.5934 99.5236 62.8198C99.7153 63.0448 99.7945 63.3379 99.7445 63.6448C99.6473 64.2518 99.0806 64.7268 98.4542 64.7268ZM77.4639 64.1018H98.4542C98.7709 64.1018 99.0792 63.8476 99.1264 63.5462C99.1459 63.4226 99.1181 63.3087 99.0473 63.2254C98.9723 63.1365 98.8542 63.0879 98.7153 63.0879H77.2431C77.3306 63.4226 77.4042 63.7615 77.4639 64.1018Z" fill="#D0D5DD"/>
<path d="M100.047 54.4292C100.518 54.4292 100.839 54.7959 100.767 55.25C100.694 55.7014 100.256 56.0681 99.7861 56.0681H77.4402C76.9708 56.0681 76.65 55.7014 76.7222 55.25C76.7944 54.7973 77.2319 54.4292 77.7014 54.4292H100.047Z" fill="#D0D5DD"/>
<path d="M99.7861 56.3807H77.4403C77.1208 56.3807 76.8278 56.2515 76.6347 56.0251C76.4431 55.8001 76.3653 55.5084 76.4139 55.2015C76.5111 54.5946 77.0764 54.1182 77.7014 54.1182H100.047C100.367 54.1182 100.661 54.2487 100.854 54.4751C101.046 54.7001 101.125 54.9932 101.075 55.3001C100.979 55.9057 100.413 56.3807 99.7861 56.3807ZM77.7014 54.7418C77.3861 54.7418 77.0792 54.9973 77.0306 55.2987C77.0111 55.4223 77.0389 55.5362 77.1097 55.6196C77.1847 55.7071 77.3014 55.7557 77.4403 55.7557H99.7861C100.103 55.7557 100.411 55.5015 100.458 55.2001C100.478 55.0765 100.45 54.9626 100.379 54.8793C100.304 54.7904 100.186 54.7418 100.047 54.7418H77.7014Z" fill="#D0D5DD"/>
<path d="M94.7222 87.8154C95.1931 87.8154 95.5139 88.1821 95.4417 88.6335C95.3694 89.0863 94.9305 89.4543 94.4597 89.4543H61.4972C61.0292 89.4543 60.7069 89.0876 60.7792 88.6335C60.8514 88.1821 61.2903 87.8154 61.7583 87.8154H94.7222Z" fill="#D0D5DD"/>
<path d="M94.4611 89.7668H61.4972C61.1791 89.7668 60.8861 89.6377 60.693 89.4113C60.5013 89.1863 60.4222 88.8932 60.4722 88.5849C60.5694 87.9779 61.1347 87.5029 61.7597 87.5029H94.7222C95.0416 87.5029 95.3361 87.6335 95.5291 87.8599C95.7208 88.0849 95.7985 88.3765 95.7499 88.6835C95.6541 89.2904 95.0874 89.7668 94.4611 89.7668ZM61.7583 88.1279C61.443 88.1279 61.1361 88.3821 61.0874 88.6835C61.068 88.8071 61.0958 88.9224 61.1666 89.0057C61.2416 89.0946 61.3583 89.1432 61.4958 89.1432H94.4597C94.7763 89.1432 95.0847 88.8877 95.1319 88.5863C95.1513 88.464 95.1236 88.3502 95.0527 88.2668C94.9777 88.1779 94.8597 88.1293 94.7208 88.1293H61.7583V88.1279Z" fill="#D0D5DD"/>
<path d="M80.7014 69.1889C80.6764 69.0292 80.6487 68.8695 80.6181 68.7112C80.6153 68.6959 80.6125 68.6806 80.6098 68.6653C80.6042 68.6362 80.5959 68.607 80.5903 68.5764C80.5639 68.4473 80.5348 68.3181 80.5042 68.1903C80.4931 68.1431 80.482 68.0945 80.4695 68.0473C80.4278 67.8806 80.3834 67.7153 80.3362 67.5514C80.2709 67.3278 80.1959 67.107 80.1181 66.8876C80.1084 66.8598 80.1014 66.832 80.0903 66.8042C80.0806 66.7751 80.0667 66.7473 80.057 66.7195C79.9834 66.5195 79.9056 66.3223 79.8209 66.1264C79.8139 66.1084 79.807 66.0917 79.7987 66.0737C79.707 65.8639 79.607 65.657 79.5042 65.4514C79.4917 65.4278 79.482 65.4042 79.4709 65.3806C79.4542 65.3473 79.4334 65.3139 79.4167 65.2806C79.3459 65.1459 79.2723 65.0139 79.1973 64.8806C79.1653 64.8264 79.1362 64.7709 79.1028 64.7167C78.9959 64.5362 78.8848 64.357 78.7667 64.1806C78.7667 64.1792 78.7653 64.1792 78.7653 64.1778C78.6667 64.0306 78.5653 63.8848 78.4598 63.7403L74.957 58.9653C75.0639 59.1098 75.1653 59.257 75.2653 59.4056C75.3834 59.582 75.4945 59.7612 75.6014 59.9417C75.6334 59.9959 75.6639 60.0514 75.6959 60.1056C75.7709 60.2376 75.8445 60.3709 75.9153 60.5042C75.9459 60.5612 75.975 60.6181 76.0042 60.6751C76.1084 60.8806 76.207 61.0876 76.2987 61.2973C76.3056 61.3139 76.3126 61.332 76.3195 61.3501C76.4042 61.5459 76.482 61.7431 76.5556 61.9431C76.5764 61.9987 76.5973 62.0556 76.6167 62.1112C76.6945 62.3306 76.7681 62.5514 76.8334 62.7751C76.882 62.9389 76.925 63.1042 76.9667 63.2709C76.9792 63.3195 76.9903 63.3667 77.0014 63.4153C77.032 63.5431 77.0598 63.6709 77.0862 63.8001C77.0959 63.8459 77.1056 63.8903 77.1139 63.9362C77.1445 64.0945 77.1737 64.2542 77.1973 64.4139C77.5362 66.5903 77.3375 68.8876 76.6264 71.1223C76.4528 71.6737 76.2445 72.2209 76.0084 72.7612C75.9598 72.8723 75.9084 72.982 75.8584 73.0917C75.8181 73.1778 75.7778 73.2639 75.7362 73.3501C75.7014 73.4209 75.6667 73.4931 75.632 73.5639C75.5889 73.6501 75.5445 73.7348 75.5 73.8209C75.4639 73.8917 75.4264 73.9612 75.3889 74.0306C75.3431 74.1167 75.2959 74.2014 75.2473 74.2876C75.2084 74.357 75.1695 74.4251 75.1306 74.4945C75.0806 74.5792 75.0306 74.6653 74.9792 74.7501C74.9417 74.8126 74.9056 74.8737 74.8667 74.9362C74.7334 75.1514 74.5959 75.3653 74.4528 75.5764C74.4251 75.6181 74.3959 75.6598 74.3667 75.7028C74.2195 75.9181 74.0667 76.1306 73.9084 76.3417C73.8889 76.3667 73.8695 76.3917 73.8514 76.4153C73.725 76.5806 73.5959 76.7445 73.4639 76.907C73.4278 76.9514 73.3917 76.9959 73.3542 77.0417C73.2042 77.2223 73.05 77.4028 72.8917 77.5792C72.8667 77.607 72.8417 77.6334 72.8167 77.6612C72.6875 77.8042 72.5556 77.9445 72.4209 78.0848C72.3764 78.132 72.3306 78.1778 72.2848 78.2237C72.1431 78.3681 71.9973 78.5126 71.85 78.6528C71.8292 78.6737 71.8084 78.6945 71.7876 78.7139C71.6987 78.7973 71.6084 78.8792 71.5181 78.9626C71.4695 79.007 71.4209 79.0528 71.3709 79.0973C71.2292 79.2237 71.0862 79.3473 70.9403 79.4709C70.7584 79.6237 70.5778 79.7681 70.3987 79.9084C70.3862 79.9181 70.3737 79.9278 70.3612 79.9376C70.1931 80.0681 70.0264 80.1931 69.8598 80.3153C69.832 80.3362 69.8028 80.357 69.775 80.3778C69.625 80.4862 69.475 80.5917 69.3251 80.6931C69.1153 80.8362 68.9042 80.9751 68.6931 81.1084C68.4848 81.2389 68.2751 81.3639 68.0626 81.4848C68.007 81.5167 67.9514 81.5459 67.8959 81.5778C67.7098 81.682 67.5237 81.7834 67.3362 81.8806C67.2653 81.9167 67.1945 81.9542 67.1237 81.9903C66.9181 82.0945 66.7112 82.1931 66.5028 82.2889C66.4653 82.3056 66.4292 82.3237 66.3917 82.3403C66.3431 82.3626 66.2931 82.3834 66.2445 82.4042C66.1084 82.4639 65.9723 82.5237 65.8348 82.5792C65.7667 82.607 65.6987 82.6334 65.6306 82.6612C65.5112 82.7084 65.3903 82.7556 65.2709 82.8014C65.1987 82.8292 65.125 82.8556 65.0528 82.882C64.9348 82.9251 64.8167 82.9653 64.6987 83.0056C64.6264 83.0306 64.5542 83.0542 64.4806 83.0778C64.3834 83.1098 64.2848 83.1389 64.1875 83.1695C64.0681 83.2056 63.9473 83.2417 63.8278 83.2764C63.7348 83.3028 63.6417 83.3278 63.5473 83.3528C63.4278 83.3848 63.3098 83.4153 63.1903 83.4445C63.0959 83.4681 63.0014 83.4903 62.9084 83.5112C62.7889 83.5389 62.6695 83.5639 62.55 83.5889C62.457 83.6084 62.3625 83.6278 62.2695 83.6445C62.1487 83.6667 62.0278 83.6889 61.907 83.7084C61.8153 83.7237 61.7223 83.7389 61.6306 83.7528C61.507 83.7709 61.3834 83.7876 61.2612 83.8042C61.1723 83.8153 61.082 83.8278 60.9931 83.8389C60.8639 83.8542 60.7362 83.8653 60.6084 83.8764C60.525 83.8834 60.4403 83.8931 60.357 83.8987C60.2153 83.9098 60.075 83.9167 59.9348 83.9237C59.8639 83.9278 59.7945 83.932 59.7237 83.9348C59.5125 83.9431 59.3028 83.9473 59.0931 83.9473C56.7028 83.9473 54.3959 83.4237 52.3723 82.3764C51.7112 82.0348 51.0806 81.6362 50.4875 81.182L53.9903 85.957C54.5834 86.4112 55.2139 86.8084 55.8751 87.1514C57.8973 88.1987 60.2056 88.7223 62.5945 88.7223C62.8042 88.7223 63.0139 88.7181 63.225 88.7098C63.2959 88.707 63.3653 88.7014 63.4362 88.6987C63.5764 88.6917 63.7181 88.6848 63.8584 88.6737C63.9417 88.6667 64.0251 88.6584 64.1084 88.6514C64.2376 88.6403 64.3653 88.6278 64.4945 88.6139C64.5834 88.6042 64.6723 88.5917 64.7612 88.5806C64.8848 88.5639 65.0084 88.5487 65.132 88.5292C65.2237 88.5153 65.3167 88.5001 65.4084 88.4848C65.5292 88.4639 65.6501 88.4431 65.7709 88.4209C65.8639 88.4028 65.9584 88.3848 66.0514 88.3653C66.1709 88.3403 66.2903 88.3153 66.4098 88.2876C66.5042 88.2667 66.5973 88.2445 66.6903 88.2209C66.8098 88.1917 66.9292 88.1612 67.0487 88.1292C67.1417 88.1042 67.2348 88.0792 67.3278 88.0528C67.4487 88.0181 67.5681 87.982 67.6889 87.9459C67.7487 87.9278 67.8098 87.9112 67.8695 87.8931C67.907 87.8806 67.9445 87.8681 67.982 87.8556C68.0542 87.832 68.1264 87.807 68.2001 87.7834C68.3181 87.7431 68.4362 87.7028 68.5542 87.6598C68.6264 87.6334 68.7 87.607 68.7723 87.5792C68.8931 87.5348 69.0125 87.4876 69.132 87.4389C69.2 87.4112 69.2681 87.3848 69.3362 87.357C69.4737 87.3001 69.6098 87.2417 69.7459 87.182C69.7945 87.1598 69.8445 87.1403 69.8931 87.1181C69.9014 87.1139 69.9112 87.1098 69.9195 87.107C69.9473 87.0945 69.9751 87.0792 70.0028 87.0667C70.2112 86.9709 70.4181 86.8723 70.6237 86.7681C70.6945 86.732 70.7653 86.6959 70.8362 86.6584C71.0237 86.5612 71.2112 86.4598 71.3959 86.3556C71.4362 86.3334 71.4764 86.3139 71.5153 86.2903C71.5306 86.282 71.5473 86.2709 71.5625 86.2626C71.7737 86.1417 71.9848 86.0167 72.1931 85.8862C72.4056 85.7528 72.6153 85.6139 72.825 85.4709C72.8445 85.4584 72.8626 85.4459 72.882 85.4334C73.0126 85.3431 73.1445 85.2501 73.275 85.1556C73.3028 85.1348 73.332 85.1139 73.3598 85.0931C73.5264 84.9709 73.6931 84.8459 73.8598 84.7153C73.8723 84.7056 73.8848 84.6959 73.8973 84.6862C73.9862 84.6167 74.0764 84.5459 74.1653 84.4723C74.2556 84.3987 74.3473 84.3237 74.4375 84.2473C74.5834 84.1237 74.7264 84.0001 74.8681 83.8737C74.9181 83.8292 74.9653 83.7848 75.0139 83.7403C75.1042 83.657 75.1959 83.5751 75.2848 83.4903C75.2889 83.4862 75.2945 83.482 75.2987 83.4778C75.3153 83.4626 75.3306 83.4459 75.3459 83.4306C75.4945 83.2889 75.6389 83.1445 75.782 83.0001C75.8278 82.9542 75.8723 82.907 75.9167 82.8612C76.0514 82.7209 76.1834 82.5806 76.3125 82.4376C76.332 82.4167 76.3528 82.3959 76.3709 82.3751C76.3764 82.3695 76.3806 82.3626 76.3862 82.357C76.5445 82.1792 76.6987 82.0001 76.8487 81.8195C76.8862 81.7751 76.9223 81.7306 76.9584 81.6862C77.0903 81.5237 77.2209 81.3598 77.3459 81.1945C77.3598 81.1751 77.3764 81.157 77.3903 81.1376C77.3945 81.132 77.3987 81.1264 77.4028 81.1209C77.5612 80.9098 77.7139 80.6973 77.8612 80.482C77.8903 80.4403 77.9181 80.3987 77.9473 80.357C78.0903 80.1445 78.2292 79.9306 78.3625 79.7153C78.3709 79.7014 78.3806 79.6889 78.3889 79.6751C78.4181 79.6264 78.4459 79.5778 78.475 79.5292C78.5264 79.4445 78.5764 79.3598 78.6264 79.2737C78.6667 79.2042 78.7042 79.1348 78.7431 79.0667C78.7903 78.982 78.8375 78.8973 78.8834 78.8112C78.9209 78.7417 78.9584 78.6709 78.9945 78.6001C79.0389 78.5153 79.0834 78.4292 79.125 78.3431C79.1612 78.2723 79.1959 78.2014 79.2306 78.1292C79.2723 78.0431 79.3125 77.957 79.3528 77.8709C79.3695 77.8334 79.3889 77.7973 79.4056 77.7598C79.4389 77.6862 79.4709 77.6139 79.5028 77.5403C79.7403 77.0001 79.9473 76.4528 80.1209 75.9014C80.8417 73.6639 81.0403 71.3667 80.7014 69.1889Z" fill="#D0D5DD"/>
<path d="M62.5945 89.0349C60.1334 89.0349 57.7612 88.4793 55.7306 87.428C55.0487 87.0752 54.4 86.6641 53.7987 86.2043C53.775 86.1863 53.7542 86.1655 53.7362 86.1405L50.2334 81.3655C50.1417 81.2405 50.1556 81.0668 50.2667 80.9571C50.3778 80.8488 50.5514 80.8377 50.675 80.9321C51.2459 81.3696 51.8639 81.7613 52.5139 82.0974C54.4556 83.103 56.7292 83.6335 59.0903 83.6335C59.2862 83.6335 59.4945 83.6293 59.7084 83.621C59.7487 83.6196 59.7875 83.6168 59.8278 83.6141L59.9153 83.6085C60.0542 83.6016 60.1917 83.5946 60.3306 83.5835C60.3848 83.5793 60.4389 83.5738 60.4917 83.5696L60.5764 83.5613C60.7056 83.5502 60.8306 83.5377 60.9542 83.5238C61.0195 83.5168 61.0848 83.5071 61.15 83.4988L61.2181 83.4905C61.3389 83.4752 61.4598 83.4585 61.582 83.4405C61.6625 83.428 61.7445 83.4141 61.825 83.4002L61.8528 83.396C61.9709 83.3766 62.0903 83.3557 62.2084 83.3335C62.3 83.3155 62.3917 83.2974 62.4848 83.278C62.6014 83.2543 62.7195 83.228 62.8362 83.2016C62.9292 83.1807 63.0209 83.1585 63.1139 83.1363C63.2306 83.1071 63.3487 83.078 63.4653 83.046C63.557 83.021 63.6487 82.9974 63.7403 82.971C63.8584 82.9377 63.9764 82.9016 64.0945 82.8655L64.1334 82.853C64.2167 82.828 64.3 82.8016 64.382 82.7752C64.4542 82.7516 64.525 82.728 64.5959 82.7043C64.7125 82.6655 64.8278 82.6252 64.9445 82.5821C65.0153 82.5557 65.0875 82.5307 65.1584 82.503C65.2764 82.4585 65.3945 82.4127 65.5125 82.3655L65.5667 82.3446C65.6153 82.3252 65.6653 82.3057 65.7139 82.2863C65.8487 82.2307 65.982 82.1724 66.1167 82.1141L66.1806 82.0863C66.207 82.0752 66.2348 82.0627 66.2612 82.0516L66.3695 82.0002C66.5695 81.9085 66.775 81.8099 66.9792 81.7071C67.0487 81.6724 67.1195 81.6363 67.1889 81.6002C67.3723 81.5057 67.557 81.4057 67.7403 81.303L67.8084 81.2655C67.8403 81.2474 67.8723 81.2307 67.9042 81.2127C68.132 81.0821 68.3348 80.9613 68.5237 80.8418C68.7167 80.721 68.9195 80.5877 69.1459 80.4335C69.2931 80.3321 69.4417 80.2293 69.5889 80.1224L69.6723 80.0613C69.8528 79.9293 70.0139 79.8071 70.1653 79.6891L70.2028 79.6585C70.3903 79.5113 70.5653 79.3696 70.7348 79.228C70.8778 79.1071 71.0181 78.9849 71.157 78.8613C71.1862 78.8349 71.2139 78.8085 71.2431 78.7821L71.3375 78.696C71.4139 78.6266 71.4917 78.5557 71.5667 78.4849L71.6292 78.4252C71.7695 78.2905 71.9098 78.153 72.0584 78.0016C72.1028 77.9557 72.1473 77.9099 72.1917 77.8641C72.3237 77.7266 72.4542 77.5877 72.5806 77.4474L72.6542 77.3682C72.8014 77.2043 72.95 77.0307 73.1098 76.8391L73.2181 76.7071C73.3556 76.5391 73.4806 76.3807 73.5987 76.2238L73.6556 76.1516C73.8 75.9599 73.9473 75.7543 74.1056 75.5238L74.1903 75.4002C74.3348 75.1877 74.4709 74.9752 74.5973 74.771C74.6292 74.7182 74.6612 74.6655 74.6931 74.6127L74.707 74.5891C74.757 74.5057 74.807 74.4224 74.8556 74.3377C74.8903 74.278 74.9237 74.2182 74.957 74.1585L74.9709 74.1335C75.0181 74.0502 75.0639 73.9655 75.1098 73.8821C75.1473 73.8141 75.1834 73.7446 75.2195 73.6752C75.2625 73.5918 75.3056 73.5071 75.3487 73.4238C75.3834 73.3543 75.4181 73.2849 75.4514 73.2141C75.4917 73.1293 75.532 73.046 75.5709 72.9613L75.5834 72.9321C75.6292 72.8335 75.675 72.7349 75.7181 72.6363C75.9528 72.1002 76.1584 71.5599 76.325 71.028C77.0209 68.8446 77.2139 66.5752 76.8848 64.4627C76.8625 64.3182 76.8362 64.1655 76.8028 63.996L76.775 63.8627C76.7487 63.7363 76.7223 63.6113 76.6917 63.4863L76.657 63.3446C76.6112 63.1599 76.5695 63.0057 76.5264 62.8627C76.4695 62.6696 76.4028 62.4641 76.3139 62.2141C76.2945 62.1599 76.275 62.1043 76.2542 62.0502C76.175 61.8377 76.1 61.6488 76.0237 61.4724L76.0028 61.421C75.9223 61.2363 75.8292 61.0391 75.7153 60.8155C75.6875 60.7599 75.6584 60.7043 75.6292 60.6488C75.5598 60.5182 75.4889 60.3891 75.4153 60.2599L75.3862 60.2099C75.3653 60.1738 75.3445 60.1363 75.3223 60.1002C75.2056 59.9043 75.0987 59.7335 74.9945 59.578C74.8973 59.4321 74.7959 59.2877 74.6945 59.1488C74.5931 59.0099 74.6223 58.8141 74.7612 58.7127C74.9 58.6113 75.0959 58.6405 75.1973 58.7793L75.1987 58.7807L78.7 63.5543C78.807 63.7002 78.9125 63.8516 79.0139 64.003C79.0153 64.0057 79.0167 64.0085 79.0195 64.0113C79.1292 64.1766 79.2403 64.3543 79.3612 64.5557C79.3848 64.5946 79.4056 64.6335 79.4278 64.671L79.457 64.7224C79.5348 64.8585 79.6098 64.9946 79.682 65.1321L79.7014 65.1682C79.7139 65.1905 79.7264 65.2127 79.7375 65.2349C79.7459 65.2502 79.7528 65.2668 79.7598 65.2821L79.7709 65.3071C79.8889 65.5405 79.9875 65.7488 80.0737 65.946L80.0959 65.9988C80.1778 66.1905 80.257 66.3891 80.3389 66.6085L80.35 66.6377C80.3584 66.6571 80.3667 66.6766 80.3737 66.6974C80.3806 66.7155 80.3862 66.7349 80.3917 66.7543L80.4014 66.7835C80.4931 67.0405 80.5639 67.2571 80.6237 67.4627C80.6681 67.6141 80.7112 67.7752 80.7612 67.9696C80.7709 68.0071 80.7792 68.046 80.7889 68.0835L80.7973 68.1168C80.8292 68.2488 80.8584 68.3807 80.8848 68.5127L80.8931 68.5474C80.8973 68.5655 80.9014 68.5835 80.9056 68.603L80.9139 68.6516C80.9487 68.8321 80.9764 68.9918 81 69.1418C81.3431 71.3502 81.1431 73.7182 80.4181 75.9918C80.2445 76.5418 80.032 77.1043 79.7875 77.6613C79.7556 77.7349 79.7223 77.8099 79.6889 77.8835C79.6778 77.9071 79.6681 77.9293 79.657 77.9516L79.6348 77.9974C79.5945 78.0849 79.5528 78.1724 79.5112 78.2585C79.4764 78.3321 79.4403 78.4043 79.4042 78.4766C79.3612 78.5641 79.3167 78.6502 79.2709 78.7377C79.2334 78.8099 79.1959 78.8807 79.157 78.953C79.1098 79.0405 79.0625 79.1266 79.0139 79.2127L78.9931 79.2502C78.9612 79.3085 78.9278 79.3668 78.8945 79.4238C78.8445 79.5113 78.7931 79.5974 78.7403 79.6835L78.7042 79.7432C78.6875 79.7724 78.6695 79.8016 78.6528 79.8307L78.6334 79.8613C78.4945 80.0849 78.3528 80.3043 78.2042 80.5238L78.1167 80.6502C77.9514 80.8905 77.7987 81.103 77.65 81.3002L77.5917 81.3766C77.4695 81.5363 77.3375 81.7057 77.1973 81.8766L77.1834 81.8946C77.1514 81.9335 77.1195 81.9738 77.0862 82.0127C76.9209 82.2113 76.7681 82.3905 76.6153 82.5599L76.5987 82.5793C76.5875 82.5918 76.5751 82.6057 76.5625 82.6182L76.5389 82.6432C76.407 82.7877 76.2737 82.9307 76.1376 83.0724C76.0917 83.1196 76.0459 83.1668 76 83.2141C75.8459 83.371 75.7 83.5141 75.557 83.6516L75.5403 83.6682C75.5292 83.6793 75.5195 83.6891 75.5084 83.7002C75.507 83.7016 75.4973 83.7099 75.4959 83.7113C75.4181 83.7849 75.3389 83.8571 75.2598 83.9293L75.1639 84.0182C75.1334 84.046 75.1028 84.0752 75.0709 84.103C74.9278 84.2307 74.782 84.3571 74.6334 84.4821C74.5403 84.5599 74.4487 84.6363 74.357 84.7099C74.2653 84.7835 74.175 84.8557 74.0848 84.9266L74.0473 84.9571C73.8889 85.0807 73.7223 85.2071 73.5389 85.3405L73.4528 85.4043C73.3195 85.5002 73.1862 85.596 73.0528 85.6877C73.0403 85.696 73.0278 85.7043 73.0153 85.7127L72.9945 85.7266C72.7626 85.8849 72.5514 86.0224 72.3514 86.1488C72.1528 86.2738 71.9431 86.3988 71.7112 86.5321L71.6625 86.5613C71.6389 86.5752 71.6139 86.5877 71.5903 86.6002C71.5737 86.6085 71.557 86.6168 71.5417 86.6266C71.3514 86.7335 71.1598 86.8363 70.9723 86.9335C70.9 86.971 70.8278 87.0085 70.7556 87.0446C70.5431 87.1516 70.3306 87.253 70.125 87.3474L70.0931 87.3627C70.075 87.371 70.057 87.3807 70.0389 87.3877L70.0195 87.396C69.982 87.4127 69.9514 87.4266 69.9209 87.4391L69.8625 87.4641C69.7237 87.5252 69.5848 87.5849 69.4459 87.6418C69.3973 87.6627 69.3473 87.6821 69.2973 87.7016L69.2389 87.7252C69.1167 87.7738 68.9945 87.821 68.8723 87.8668C68.7987 87.8946 68.725 87.921 68.6514 87.9488C68.532 87.9918 68.4112 88.0335 68.2917 88.0752C68.2153 88.1002 68.1431 88.1252 68.0709 88.1488L68.0237 88.1641C68.0014 88.1724 67.9778 88.1793 67.9556 88.1863C67.9195 88.1974 67.8834 88.2085 67.8459 88.2182L67.7723 88.2405C67.65 88.278 67.5278 88.3141 67.4056 88.3488C67.3112 88.3752 67.2167 88.4016 67.1223 88.4266C67 88.4585 66.8792 88.4905 66.757 88.5196C66.6625 88.5432 66.5667 88.5655 66.4709 88.5877C66.3487 88.6155 66.2278 88.6418 66.1056 88.6668C66.0098 88.6863 65.9153 88.7057 65.8195 88.7238C65.6973 88.7474 65.5737 88.7682 65.45 88.7891L65.4181 88.7946C65.3348 88.8085 65.2528 88.8224 65.1695 88.8349C65.0431 88.8543 64.9181 88.871 64.7917 88.8863L64.7237 88.8946C64.6556 88.903 64.5875 88.9127 64.5209 88.9196C64.3903 88.9349 64.2598 88.946 64.1292 88.9585L64.0459 88.9668C63.9875 88.9724 63.9306 88.978 63.8723 88.9821C63.7278 88.9932 63.5848 89.0002 63.4417 89.0071L63.3612 89.0113C63.3167 89.0141 63.2723 89.0168 63.2278 89.0182C63.0153 89.0307 62.7987 89.0349 62.5945 89.0349ZM54.2153 85.7349C54.7764 86.1613 55.3834 86.5432 56.0195 86.8724C57.9612 87.878 60.2348 88.4085 62.5959 88.4085C62.7917 88.4085 63 88.4043 63.2139 88.396C63.2542 88.3946 63.2945 88.3918 63.3348 88.3891L63.4209 88.3835C63.5598 88.3766 63.6973 88.3696 63.8362 88.3585C63.8903 88.3543 63.9445 88.3488 63.9987 88.3446L64.0834 88.3363C64.2112 88.3252 64.3362 88.3127 64.4625 88.2988C64.5264 88.2918 64.5903 88.2835 64.6556 88.2752L64.725 88.2655C64.8459 88.2502 64.9681 88.2335 65.0889 88.2155C65.1681 88.203 65.2487 88.1905 65.3278 88.1766L65.3598 88.171C65.4792 88.1516 65.5973 88.1307 65.7153 88.1085C65.807 88.0905 65.8987 88.0724 65.9917 88.053C66.1098 88.0293 66.2264 88.003 66.3445 87.9766C66.4362 87.9557 66.5292 87.9335 66.6209 87.9113C66.7389 87.8821 66.8556 87.8516 66.9737 87.821C67.0653 87.796 67.157 87.7724 67.2473 87.746C67.3653 87.7127 67.4834 87.6766 67.6014 87.6405L67.6848 87.6155C67.7167 87.6057 67.7473 87.5974 67.7778 87.5877L67.8889 87.5502C67.9584 87.528 68.0292 87.5043 68.0987 87.4807C68.2181 87.4405 68.3348 87.4002 68.45 87.3585C68.5209 87.3321 68.5931 87.3071 68.6639 87.2793C68.782 87.2349 68.9 87.1891 69.0181 87.1418L69.0778 87.1182C69.125 87.1002 69.1709 87.0807 69.2181 87.0627C69.3528 87.0071 69.4875 86.9488 69.6209 86.8905L69.6848 86.8627C69.7125 86.8516 69.7389 86.8391 69.7653 86.8279L69.8264 86.8002C69.8431 86.7918 69.8584 86.7849 69.875 86.7766C70.0737 86.6849 70.2792 86.5863 70.4862 86.4835C70.557 86.4488 70.6264 86.4127 70.6959 86.3766C70.8778 86.2821 71.0625 86.1821 71.2473 86.0793C71.2681 86.0682 71.2889 86.0571 71.3098 86.046C71.3278 86.0363 71.3459 86.0266 71.3639 86.0168L71.4098 85.9891C71.6362 85.8599 71.8389 85.7377 72.0306 85.6182C72.2237 85.4974 72.4278 85.3641 72.6528 85.2099L72.7084 85.1738C72.8376 85.0849 72.9667 84.9932 73.0959 84.9002L73.1806 84.8377C73.3584 84.7071 73.5195 84.5863 73.6723 84.4655L73.7098 84.4349C73.7959 84.3668 73.8848 84.2974 73.9737 84.2252C74.0625 84.153 74.1528 84.0793 74.2417 84.0043C74.3848 83.8835 74.525 83.7613 74.6639 83.6377C74.6931 83.6127 74.7209 83.5863 74.7473 83.5613L74.8473 83.4696C74.9223 83.4002 74.9987 83.3321 75.0723 83.2613C75.0737 83.2599 75.0806 83.253 75.0834 83.2516L75.1348 83.2016C75.2737 83.0696 75.4139 82.9307 75.5639 82.778C75.6084 82.7321 75.6528 82.6863 75.6973 82.6405C75.8292 82.503 75.9598 82.3641 76.0862 82.2238L76.1598 82.1432C76.3056 81.9793 76.4556 81.8071 76.6153 81.6141C76.6473 81.5766 76.6778 81.5391 76.7084 81.5002L76.7237 81.4821C76.8584 81.3168 76.9875 81.153 77.1056 80.9988L77.1625 80.9252C77.3056 80.7363 77.4528 80.5307 77.6126 80.2988L77.6959 80.1766C77.8403 79.9641 77.9764 79.7516 78.1042 79.546L78.1292 79.5071C78.1445 79.4821 78.1598 79.4557 78.175 79.4293L78.2139 79.3641C78.2639 79.2807 78.3139 79.1974 78.3625 79.1141C78.3945 79.0585 78.4264 79.003 78.457 78.946L78.4778 78.9085C78.5237 78.8252 78.5709 78.7418 78.6153 78.6585C78.6528 78.5891 78.6889 78.521 78.725 78.4516C78.7681 78.3682 78.8112 78.2849 78.8528 78.2002C78.8875 78.1293 78.9223 78.0599 78.957 77.9891C78.9973 77.9057 79.0375 77.821 79.0764 77.7363L79.1292 77.6266C79.1612 77.5557 79.1931 77.4849 79.225 77.4127C79.4612 76.8752 79.6653 76.3349 79.832 75.8043C80.5278 73.621 80.7209 71.3516 80.3917 69.2391C80.3695 69.0974 80.3431 68.946 80.3098 68.7738L80.2834 68.6418C80.257 68.5155 80.2292 68.3905 80.2001 68.2655L80.1917 68.2307C80.1834 68.196 80.175 68.1599 80.1667 68.1252C80.1195 67.9391 80.0778 67.7849 80.0362 67.6418C79.9792 67.446 79.9112 67.2405 79.8237 66.9946C79.8181 66.9766 79.8125 66.9613 79.807 66.9446C79.8042 66.9349 79.8 66.9238 79.7973 66.9141C79.7931 66.903 79.7889 66.8932 79.7848 66.8835C79.7778 66.8668 79.7709 66.8488 79.7639 66.8321C79.6862 66.6238 79.6112 66.4335 79.5334 66.2543L79.5125 66.203C79.432 66.0168 79.3375 65.8182 79.225 65.596C79.2181 65.5821 79.2098 65.5655 79.2028 65.5502L79.1917 65.5252C79.1848 65.5113 79.1764 65.496 79.1681 65.4821C79.1584 65.4655 79.1487 65.4474 79.1389 65.4293C79.0695 65.2974 78.9987 65.1682 78.925 65.0391L78.8945 64.9849C78.875 64.9502 78.8542 64.9141 78.8334 64.8793C78.7167 64.6835 78.6098 64.5113 78.5056 64.3571C78.5042 64.3557 78.5028 64.353 78.5014 64.3502C78.4056 64.2071 78.3056 64.0655 78.2056 63.928L77.0098 62.2974C77.057 62.4377 77.0973 62.5668 77.1334 62.6905C77.1778 62.8418 77.2223 63.003 77.2709 63.1974L77.307 63.3446C77.3375 63.4766 77.3667 63.6071 77.3945 63.7391L77.4237 63.878C77.4584 64.0557 77.4862 64.2155 77.5098 64.3682C77.8528 66.5766 77.6514 68.9446 76.9278 71.2182C76.7542 71.7696 76.5417 72.3321 76.2973 72.8877C76.2528 72.9905 76.2042 73.0932 76.157 73.196L76.1445 73.2238C76.1042 73.3113 76.0625 73.3988 76.0209 73.4863C75.9862 73.5585 75.95 73.6307 75.9139 73.7043C75.8695 73.7918 75.8251 73.8793 75.7806 73.9655C75.7431 74.0363 75.7056 74.1085 75.6681 74.1793C75.6209 74.2668 75.5723 74.353 75.5237 74.4404L75.5098 74.4655C75.475 74.528 75.4403 74.5891 75.4042 74.6516C75.3542 74.7391 75.3028 74.8252 75.25 74.9113L75.2362 74.9349C75.2028 74.9905 75.1695 75.046 75.1362 75.1002C75.0056 75.3127 74.8639 75.5321 74.7139 75.753L74.6264 75.8807C74.4625 76.1196 74.3098 76.3321 74.1598 76.5307L74.1014 76.6057C73.9778 76.7682 73.8487 76.9321 73.707 77.1057L73.5945 77.2418C73.4306 77.4405 73.2764 77.6182 73.1237 77.7877L73.0473 77.8696C72.9153 78.0141 72.782 78.1571 72.6445 78.3002C72.5987 78.3474 72.5528 78.3946 72.507 78.4418C72.3542 78.5974 72.2098 78.7405 72.0639 78.8793L72 78.9418C71.9223 79.0155 71.8431 79.0877 71.7626 79.1613L71.6723 79.2446C71.6403 79.2738 71.6098 79.303 71.5778 79.3307C71.4348 79.4585 71.2889 79.5849 71.1403 79.7099C70.9639 79.8571 70.7848 80.003 70.5903 80.1543L70.5528 80.1849C70.3959 80.3071 70.2292 80.4335 70.0445 80.5682L69.9584 80.6321C69.8056 80.7432 69.6528 80.8488 69.5014 80.953C69.2695 81.1113 69.0584 81.2488 68.8584 81.3752C68.6612 81.4988 68.4514 81.6238 68.2181 81.7585C68.1834 81.778 68.1487 81.7974 68.1125 81.8168L68.0487 81.853C67.8598 81.9585 67.6681 82.0627 67.4792 82.1599C67.407 82.1974 67.3348 82.2349 67.2625 82.271C67.05 82.378 66.8389 82.4793 66.632 82.5738L66.5834 82.596C66.5625 82.6057 66.5403 82.6168 66.5195 82.6266C66.4889 82.6405 66.4584 82.653 66.4278 82.6668L66.3681 82.6918C66.2292 82.753 66.0903 82.8127 65.9514 82.8696C65.9 82.8905 65.8487 82.9113 65.7959 82.9321L65.7431 82.953C65.6209 83.0016 65.5 83.0488 65.3764 83.0946C65.3028 83.1224 65.2292 83.1488 65.1542 83.1766C65.0348 83.2196 64.9139 83.2613 64.7945 83.3016C64.7209 83.3266 64.6473 83.3516 64.5737 83.3752C64.4875 83.403 64.4 83.4293 64.3139 83.4557L64.275 83.4668C64.1528 83.5043 64.0306 83.5405 63.9084 83.5752C63.8139 83.6016 63.7181 83.628 63.6237 83.653C63.5028 83.6849 63.382 83.7168 63.2598 83.746C63.1639 83.7696 63.0681 83.7918 62.9723 83.8141C62.8514 83.8418 62.7292 83.8682 62.6084 83.8932C62.5139 83.9127 62.4181 83.9321 62.3223 83.9502C62.1987 83.9738 62.0764 83.9946 61.9528 84.0155L61.925 84.0196C61.8403 84.0335 61.7556 84.0474 61.6709 84.0613C61.5445 84.0807 61.4195 84.0974 61.2945 84.1127L61.2278 84.121C61.1584 84.1307 61.0903 84.1391 61.0223 84.1474C60.8931 84.1627 60.7639 84.1738 60.6348 84.1863L60.5487 84.1946C60.4903 84.2002 60.432 84.2057 60.375 84.2099C60.232 84.221 60.0889 84.228 59.9459 84.2349L59.8639 84.2391C59.8195 84.2418 59.775 84.2446 59.7306 84.246C59.5084 84.2543 59.2931 84.2585 59.0889 84.2585C56.6278 84.2585 54.2556 83.703 52.225 82.6516C52.0709 82.5724 51.9195 82.4891 51.7695 82.4043L54.2153 85.7349Z" fill="#F9FAFB"/>
<path d="M121.343 90.0376C122.484 90.0376 123.41 89.1124 123.41 87.971C123.41 86.8296 122.484 85.9043 121.343 85.9043C120.202 85.9043 119.276 86.8296 119.276 87.971C119.276 89.1124 120.202 90.0376 121.343 90.0376Z" fill="#F9FAFB"/>
<path d="M34.4347 82.4126C35.5761 82.4126 36.5014 81.4874 36.5014 80.346C36.5014 79.2046 35.5761 78.2793 34.4347 78.2793C33.2933 78.2793 32.368 79.2046 32.368 80.346C32.368 81.4874 33.2933 82.4126 34.4347 82.4126Z" fill="#F9FAFB"/>
<path d="M35.4695 84.0835C35.8714 84.0835 36.1973 83.7576 36.1973 83.3557C36.1973 82.9538 35.8714 82.6279 35.4695 82.6279C35.0675 82.6279 34.7417 82.9538 34.7417 83.3557C34.7417 83.7576 35.0675 84.0835 35.4695 84.0835Z" fill="#F9FAFB"/>
<path d="M45.7167 56.4195C46.8581 56.4195 47.7834 55.4942 47.7834 54.3528C47.7834 53.2114 46.8581 52.2861 45.7167 52.2861C44.5753 52.2861 43.65 53.2114 43.65 54.3528C43.65 55.4942 44.5753 56.4195 45.7167 56.4195Z" fill="#F9FAFB"/>
<path d="M48.132 53.0083C48.5339 53.0083 48.8597 52.6825 48.8597 52.2805C48.8597 51.8786 48.5339 51.5527 48.132 51.5527C47.73 51.5527 47.4042 51.8786 47.4042 52.2805C47.4042 52.6825 47.73 53.0083 48.132 53.0083Z" fill="#F9FAFB"/>
<path d="M126.65 45.5359C128.614 45.5359 130.206 43.944 130.206 41.9804C130.206 40.0167 128.614 38.4248 126.65 38.4248C124.686 38.4248 123.094 40.0167 123.094 41.9804C123.094 43.944 124.686 45.5359 126.65 45.5359Z" fill="#E4E7EC"/>
<path d="M123.094 40.225C124.029 40.225 124.787 39.467 124.787 38.5319C124.787 37.5969 124.029 36.8389 123.094 36.8389C122.159 36.8389 121.401 37.5969 121.401 38.5319C121.401 39.467 122.159 40.225 123.094 40.225Z" fill="#F9FAFB"/>
</svg>
