<svg width="56" height="56" viewBox="0 0 56 56" fill="none" xmlns="http://www.w3.org/2000/svg">
<rect width="56" height="56" rx="28" fill="#FEEFEB"/>
<path d="M25.9867 14.9733L19.3334 17.4667C17.8 18.04 16.5467 19.8533 16.5467 21.4933V31.4C16.5467 32.9733 17.5867 35.04 18.8534 35.9866L24.5867 40.2667C26.4667 41.68 29.56 41.68 31.44 40.2667L37.1734 35.9866C38.44 35.04 39.48 32.9733 39.48 31.4V21.4933C39.48 19.8533 38.2267 18.04 36.6933 17.4667L30.04 14.9733C28.9067 14.56 27.0933 14.56 25.9867 14.9733Z" stroke="#F76039" stroke-width="1.5" stroke-linecap="round" stroke-linejoin="round"/>
<path opacity="0.4" d="M28 26.5601C27.9466 26.5601 27.88 26.5601 27.8266 26.5601C26.5733 26.5201 25.5733 25.48 25.5733 24.2134C25.5733 22.92 26.6266 21.8667 27.92 21.8667C29.2133 21.8667 30.2667 22.92 30.2667 24.2134C30.2533 25.4934 29.2533 26.5201 28 26.5601Z" stroke="#F76039" stroke-width="1.5" stroke-linecap="round" stroke-linejoin="round"/>
<path opacity="0.4" d="M25.3467 30.2934C24.0667 31.1467 24.0667 32.5467 25.3467 33.4C26.8 34.3733 29.1867 34.3733 30.64 33.4C31.92 32.5467 31.92 31.1467 30.64 30.2934C29.2 29.32 26.8133 29.32 25.3467 30.2934Z" stroke="#F76039" stroke-width="1.5" stroke-linecap="round" stroke-linejoin="round"/>
</svg>
