<svg width="56" height="56" viewBox="0 0 56 56" fill="none" xmlns="http://www.w3.org/2000/svg">
<path d="M22.1666 32.0833C22.1666 34.3467 23.9167 36.1667 26.0633 36.1667H30.4499C32.3166 36.1667 33.8333 34.58 33.8333 32.5967C33.8333 30.4733 32.9 29.7033 31.5233 29.2133L24.5 26.7633C23.1233 26.2733 22.19 25.5267 22.19 23.38C22.19 21.42 23.7066 19.81 25.5733 19.81H29.96C32.1066 19.81 33.8566 21.63 33.8566 23.8933" stroke="url(#paint0_linear_4918_92840)" stroke-width="1.5" stroke-linecap="round" stroke-linejoin="round"/>
<path d="M28 17.5V38.5" stroke="url(#paint1_linear_4918_92840)" stroke-width="1.5" stroke-linecap="round" stroke-linejoin="round"/>
<path d="M51.3333 28C51.3333 40.88 40.88 51.3333 28 51.3333C15.12 51.3333 4.66663 40.88 4.66663 28C4.66663 15.12 15.12 4.66666 28 4.66666" stroke="url(#paint2_linear_4918_92840)" stroke-width="1.5" stroke-linecap="round" stroke-linejoin="round"/>
<path d="M39.6666 7V16.3333H49" stroke="url(#paint3_linear_4918_92840)" stroke-width="1.5" stroke-linecap="round" stroke-linejoin="round"/>
<path d="M51.3333 4.66666L39.6666 16.3333" stroke="url(#paint4_linear_4918_92840)" stroke-width="1.5" stroke-linecap="round" stroke-linejoin="round"/>
<defs>
<linearGradient id="paint0_linear_4918_92840" x1="22.1666" y1="34.5939" x2="35.9399" y2="32.3022" gradientUnits="userSpaceOnUse">
<stop offset="0.102194" stop-color="#F76039"/>
<stop offset="1" stop-color="#F76039"/>
</linearGradient>
<linearGradient id="paint1_linear_4918_92840" x1="28" y1="36.4808" x2="29.2107" y2="36.4673" gradientUnits="userSpaceOnUse">
<stop offset="0.102194" stop-color="#F76039"/>
<stop offset="1" stop-color="#F76039"/>
</linearGradient>
<linearGradient id="paint2_linear_4918_92840" x1="4.66663" y1="46.8461" x2="58.2668" y2="34.3678" gradientUnits="userSpaceOnUse">
<stop offset="0.102194" stop-color="#F76039"/>
<stop offset="1" stop-color="#F76039"/>
</linearGradient>
<linearGradient id="paint3_linear_4918_92840" x1="39.6666" y1="15.4359" x2="50.3867" y2="12.9402" gradientUnits="userSpaceOnUse">
<stop offset="0.102194" stop-color="#F76039"/>
<stop offset="1" stop-color="#F76039"/>
</linearGradient>
<linearGradient id="paint4_linear_4918_92840" x1="39.6666" y1="15.2115" x2="53.0667" y2="12.0919" gradientUnits="userSpaceOnUse">
<stop offset="0.102194" stop-color="#F76039"/>
<stop offset="1" stop-color="#F76039"/>
</linearGradient>
</defs>
</svg>
