<svg width="33" height="32" viewBox="0 0 33 32" fill="none" xmlns="http://www.w3.org/2000/svg">
<path fill-rule="evenodd" clip-rule="evenodd" d="M1 16C1 7.16344 8.16344 0 17 0C25.8366 0 33 7.16344 33 16C33 24.8366 25.8366 32 17 32C8.16344 32 1 24.8366 1 16Z" fill="#FFE7B5"/>
<path fill-rule="evenodd" clip-rule="evenodd" d="M9.8806 11.5866C9.5 12.5054 9.5 13.6703 9.5 16C9.5 18.3297 9.5 19.4946 9.8806 20.4134C10.3881 21.6386 11.3614 22.6119 12.5866 23.1194C13.5054 23.5 14.6703 23.5 17 23.5C19.3297 23.5 20.4946 23.5 21.4134 23.1194C22.6386 22.6119 23.6119 21.6386 24.1194 20.4134C24.5 19.4946 24.5 18.3297 24.5 16C24.5 13.6703 24.5 12.5054 24.1194 11.5866C23.6119 10.3614 22.6386 9.38808 21.4134 8.8806C20.4946 8.5 19.3297 8.5 17 8.5C14.6703 8.5 13.5054 8.5 12.5866 8.8806C11.3614 9.38808 10.3881 10.3614 9.8806 11.5866ZM17.7138 19.1797L16.3908 17.2301L13.9312 20.1817C13.7102 20.4469 13.3161 20.4827 13.0509 20.2617C12.7857 20.0407 12.7499 19.6467 12.9709 19.3815L15.6605 16.1539L13.2906 12.6614C12.9108 12.1017 12.7209 11.8219 12.8306 11.6034C12.8333 11.5978 12.8362 11.5924 12.8393 11.5869C12.9585 11.3735 13.2967 11.3735 13.9731 11.3735C14.8201 11.3735 15.2435 11.3735 15.6037 11.5598C15.6136 11.5649 15.6234 11.5701 15.6333 11.5754C15.9896 11.7689 16.2273 12.1193 16.7029 12.8201L17.482 13.9682L19.3317 11.7486C19.5526 11.4834 19.9467 11.4476 20.2119 11.6686C20.4771 11.8895 20.5129 12.2836 20.2919 12.5488L18.2122 15.0444L21.1262 19.3386C21.5059 19.8982 21.6958 20.1781 21.5862 20.3966C21.5834 20.4021 21.5805 20.4076 21.5775 20.413C21.4583 20.6264 21.1201 20.6264 20.4437 20.6264C19.5967 20.6264 19.1732 20.6264 18.8131 20.4402C18.8032 20.4351 18.7933 20.4298 18.7835 20.4245C18.4272 20.2311 18.1894 19.8807 17.7138 19.1797Z" fill="#010100"/>
</svg>
