<svg width="33" height="32" viewBox="0 0 33 32" fill="none" xmlns="http://www.w3.org/2000/svg">
<path fill-rule="evenodd" clip-rule="evenodd" d="M0.5 16C0.5 7.16344 7.66344 0 16.5 0C25.3366 0 32.5 7.16344 32.5 16C32.5 24.8366 25.3366 32 16.5 32C7.66344 32 0.5 24.8366 0.5 16Z" fill="#FFE7B5"/>
<g clip-path="url(#clip0_7248_359)">
<path d="M17.4223 23.7368V15.9949H20.0341L20.4223 12.9637H17.4223V11.033C17.4223 10.1583 17.666 9.55942 18.9214 9.55942H20.5121V6.85694C19.7381 6.774 18.9602 6.73395 18.1818 6.73698C15.8732 6.73698 14.2882 8.14631 14.2882 10.7335V12.9581H11.6934V15.9893H14.2938V23.7368H17.4223Z" fill="#010100"/>
</g>
<defs>
<clipPath id="clip0_7248_359">
<rect width="10" height="18" fill="white" transform="translate(11.5 6.61182)"/>
</clipPath>
</defs>
</svg>
