<svg width="33" height="32" viewBox="0 0 33 32" fill="none" xmlns="http://www.w3.org/2000/svg">
<path fill-rule="evenodd" clip-rule="evenodd" d="M0.5 16C0.5 7.16344 7.66344 0 16.5 0C25.3366 0 32.5 7.16344 32.5 16C32.5 24.8366 25.3366 32 16.5 32C7.66344 32 0.5 24.8366 0.5 16Z" fill="#FFE7B5"/>
<g clip-path="url(#clip0_7248_363)">
<path d="M16.8636 13.141C15.3028 13.141 14.0291 14.4148 14.0291 15.9756C14.0291 17.5364 15.3028 18.8101 16.8636 18.8101C18.4244 18.8101 19.6981 17.5364 19.6981 15.9756C19.6981 14.4148 18.4244 13.141 16.8636 13.141ZM25.3651 15.9756C25.3651 14.8018 25.3757 13.6386 25.3098 12.467C25.2439 11.106 24.9334 9.89823 23.9383 8.90306C22.941 7.90576 21.7353 7.59743 20.3743 7.53151C19.2006 7.46559 18.0374 7.47622 16.8657 7.47622C15.6919 7.47622 14.5288 7.46559 13.3571 7.53151C11.9962 7.59743 10.7884 7.90788 9.79319 8.90306C8.7959 9.90036 8.48756 11.106 8.42164 12.467C8.35572 13.6408 8.36636 14.8039 8.36636 15.9756C8.36636 17.1473 8.35572 18.3125 8.42164 19.4842C8.48756 20.8451 8.79802 22.0529 9.79319 23.0481C10.7905 24.0454 11.9962 24.3537 13.3571 24.4197C14.5309 24.4856 15.6941 24.475 16.8657 24.475C18.0395 24.475 19.2027 24.4856 20.3743 24.4197C21.7353 24.3537 22.9431 24.0433 23.9383 23.0481C24.9356 22.0508 25.2439 20.8451 25.3098 19.4842C25.3779 18.3125 25.3651 17.1494 25.3651 15.9756ZM16.8636 20.3369C14.4501 20.3369 12.5023 18.3891 12.5023 15.9756C12.5023 13.5621 14.4501 11.6143 16.8636 11.6143C19.2771 11.6143 21.2249 13.5621 21.2249 15.9756C21.2249 18.3891 19.2771 20.3369 16.8636 20.3369ZM21.4035 12.4542C20.84 12.4542 20.385 11.9991 20.385 11.4356C20.385 10.8721 20.84 10.4171 21.4035 10.4171C21.967 10.4171 22.4221 10.8721 22.4221 11.4356C22.4223 11.5695 22.396 11.702 22.3449 11.8256C22.2938 11.9493 22.2188 12.0616 22.1241 12.1563C22.0295 12.2509 21.9172 12.3259 21.7935 12.377C21.6699 12.4281 21.5373 12.4544 21.4035 12.4542Z" fill="#010100"/>
</g>
<defs>
<clipPath id="clip0_7248_363">
<rect width="18" height="18" fill="white" transform="translate(7.5 6.61182)"/>
</clipPath>
</defs>
</svg>
