<svg width="24" height="24" viewBox="0 0 24 24" fill="none" xmlns="http://www.w3.org/2000/svg">
<rect width="24" height="24" rx="12" fill="#98A2B3"/>
<path d="M10.8583 9.97144C9.64369 9.7995 8.40556 10.003 7.30991 10.5547C6.21426 11.1064 5.31349 11.9799 4.72837 13.0581C4.14325 14.1363 3.90176 15.3676 4.03628 16.5869C4.17081 17.8062 4.67492 18.9552 5.48101 19.8799C6.2871 20.8046 7.35664 21.4607 8.5462 21.7603C9.73577 22.0599 10.9885 21.9886 12.1364 21.556C13.2843 21.1234 14.2725 20.3502 14.9685 19.34C15.6645 18.3299 16.035 17.1311 16.0303 15.9044V9.32365C17.3495 10.2673 18.9326 10.771 20.5546 10.7632V7.52424C19.3547 7.52424 18.2039 7.04758 17.3554 6.19912C16.507 5.35066 16.0303 4.1999 16.0303 3H12.7605V15.9352C12.7594 16.5157 12.5745 17.081 12.2325 17.5501C11.8905 18.0192 11.4088 18.3681 10.8564 18.5467C10.3041 18.7254 9.70932 18.7247 9.15737 18.5447C8.60543 18.3647 8.12458 18.0147 7.78367 17.5448C7.44275 17.0749 7.25927 16.5092 7.25947 15.9287C7.25968 15.3481 7.44357 14.7825 7.78482 14.3129C8.12607 13.8432 8.60717 13.4936 9.15924 13.314C9.71132 13.1344 10.3061 13.1342 10.8583 13.3132V9.97144Z" fill="#323436"/>
</svg>
