<svg width="24" height="24" viewBox="0 0 24 24" fill="none" xmlns="http://www.w3.org/2000/svg">
<path d="M21.8111 19.4669L13.3916 3.83142C12.7949 2.72286 11.2051 2.72286 10.6079 3.83142L2.18892 19.4669C2.05935 19.7076 1.99439 19.9777 2.00038 20.251C2.00637 20.5242 2.08311 20.7913 2.2231 21.026C2.3631 21.2608 2.56156 21.4552 2.79913 21.5904C3.0367 21.7255 3.30526 21.7968 3.57858 21.7972H20.419C20.6925 21.7972 20.9613 21.7262 21.1993 21.5913C21.4372 21.4563 21.636 21.2619 21.7763 21.0271C21.9166 20.7922 21.9935 20.525 21.9996 20.2516C22.0057 19.9781 21.9408 19.7077 21.8111 19.4669ZM12 19.3765C11.8046 19.3765 11.6136 19.3185 11.4511 19.21C11.2886 19.1014 11.162 18.9471 11.0872 18.7666C11.0124 18.586 10.9928 18.3874 11.031 18.1957C11.0691 18.0041 11.1632 17.828 11.3014 17.6898C11.4395 17.5517 11.6156 17.4576 11.8072 17.4194C11.9989 17.3813 12.1976 17.4009 12.3781 17.4757C12.5586 17.5504 12.7129 17.6771 12.8215 17.8396C12.9301 18.002 12.988 18.1931 12.988 18.3885C12.988 18.6505 12.8839 18.9018 12.6986 19.0871C12.5133 19.2724 12.262 19.3765 12 19.3765ZM13.073 9.43945L12.7894 15.4664C12.7894 15.676 12.7062 15.8771 12.5579 16.0253C12.4097 16.1735 12.2086 16.2568 11.999 16.2568C11.7894 16.2568 11.5883 16.1735 11.4401 16.0253C11.2919 15.8771 11.2086 15.676 11.2086 15.4664L10.925 9.44192C10.9187 9.29795 10.9413 9.15418 10.9917 9.01918C11.0421 8.88417 11.1191 8.76068 11.2182 8.65608C11.3174 8.55148 11.4365 8.4679 11.5686 8.41034C11.7007 8.35277 11.8431 8.32239 11.9872 8.321H11.9975C12.1426 8.32093 12.2862 8.35025 12.4196 8.40719C12.5531 8.46413 12.6736 8.54752 12.7739 8.65232C12.8742 8.75712 12.9523 8.88116 13.0033 9.01695C13.0544 9.15274 13.0774 9.29747 13.071 9.44241L13.073 9.43945Z" fill="#F59B00"/>
</svg>
