<svg width="24" height="24" viewBox="0 0 24 24" fill="none" xmlns="http://www.w3.org/2000/svg">
<rect width="24" height="24" rx="12" fill="#E3E6E9"/>
<path d="M11.4993 10.7292C12.1092 10.7292 12.7053 10.5483 13.2124 10.2095C13.7194 9.87073 14.1146 9.38918 14.348 8.82578C14.5813 8.26237 14.6424 7.64241 14.5234 7.04431C14.4045 6.4462 14.1108 5.8968 13.6796 5.46559C13.2484 5.03438 12.699 4.74072 12.1009 4.62175C11.5028 4.50278 10.8828 4.56384 10.3194 4.79721C9.756 5.03058 9.27445 5.42577 8.93565 5.93283C8.59685 6.43988 8.41602 7.03601 8.41602 7.64583C8.41602 8.46359 8.74087 9.24784 9.3191 9.82608C9.89734 10.4043 10.6816 10.7292 11.4993 10.7292ZM16.1243 18.4375C16.3288 18.4375 16.5249 18.3563 16.6694 18.2117C16.814 18.0672 16.8952 17.8711 16.8952 17.6667C16.8952 16.2356 16.3267 14.8632 15.3148 13.8512C14.3029 12.8393 12.9304 12.2708 11.4993 12.2708C10.0683 12.2708 8.69583 12.8393 7.68392 13.8512C6.672 14.8632 6.10352 16.2356 6.10352 17.6667C6.10352 17.8711 6.18473 18.0672 6.32929 18.2117C6.47385 18.3563 6.66991 18.4375 6.87435 18.4375H16.1243Z" fill="#666481"/>
</svg>
