<svg width="24" height="24" viewBox="0 0 24 24" fill="none" xmlns="http://www.w3.org/2000/svg">
<path d="M16 0H8C3.58172 0 0 3.58172 0 8V16C0 20.4183 3.58172 24 8 24H16C20.4183 24 24 20.4183 24 16V8C24 3.58172 20.4183 0 16 0Z" fill="#98A2B3"/>
<path d="M11.0254 13.9684L13.142 17.0876C13.903 18.2091 14.2834 18.7697 14.8535 19.0792C14.8692 19.0877 14.885 19.0961 14.9008 19.1043C15.477 19.4023 16.1546 19.4023 17.5098 19.4023C18.5921 19.4023 19.1331 19.4023 19.3239 19.0608C19.3287 19.0521 19.3334 19.0433 19.3378 19.0345C19.5133 18.6849 19.2094 18.2372 18.6018 17.3417L13.9396 10.4713L17.2674 6.47808C17.6208 6.0538 17.5635 5.42324 17.1392 5.06967C16.715 4.71611 16.0844 4.77343 15.7308 5.19771L12.7712 8.74932L11.5246 6.91224C10.7636 5.79087 10.3832 5.23019 9.81312 4.9207C9.79738 4.91219 9.78165 4.90384 9.76578 4.89564C9.1896 4.59766 8.51202 4.59766 7.15685 4.59766C6.07465 4.59766 5.53356 4.59766 5.34274 4.93911C5.3379 4.94776 5.33326 4.95652 5.32882 4.96538C5.15342 5.315 5.45725 5.76274 6.0649 6.65823L9.85698 12.2465L5.5537 17.4103C5.20014 17.8347 5.25746 18.4652 5.68174 18.8188C6.10602 19.1723 6.73658 19.1149 7.09016 18.6907L7.6878 17.9735L11.0254 13.9684Z" fill="#323436"/>
</svg>
